%TF.GenerationSoftware,KiCad,Pcbnew,5.1.9*%
%TF.CreationDate,2021-01-16T20:05:28+01:00*%
%TF.ProjectId,unicorn,756e6963-6f72-46e2-9e6b-696361645f70,rev?*%
%TF.SameCoordinates,Original*%
%TF.FileFunction,Soldermask,Bot*%
%TF.FilePolarity,Negative*%
%FSLAX46Y46*%
G04 Gerber Fmt 4.6, Leading zero omitted, Abs format (unit mm)*
G04 Created by KiCad (PCBNEW 5.1.9) date 2021-01-16 20:05:28*
%MOMM*%
%LPD*%
G01*
G04 APERTURE LIST*
%ADD10C,0.010000*%
%ADD11C,0.100000*%
%ADD12R,1.524000X5.000000*%
%ADD13R,5.000000X1.524000*%
%ADD14R,2.600000X3.600000*%
G04 APERTURE END LIST*
D10*
%TO.C,Ref\u002A\u002A*%
G36*
X221847538Y-48944153D02*
G01*
X221848190Y-48959335D01*
X221833067Y-48993539D01*
X221798597Y-49052054D01*
X221741212Y-49140172D01*
X221657343Y-49263180D01*
X221543420Y-49426369D01*
X221395875Y-49635030D01*
X221211137Y-49894451D01*
X220985638Y-50209922D01*
X220715809Y-50586734D01*
X220591988Y-50759555D01*
X220042516Y-51526162D01*
X219540512Y-52225982D01*
X219084372Y-52861222D01*
X218672490Y-53434088D01*
X218303264Y-53946790D01*
X217975087Y-54401532D01*
X217686356Y-54800524D01*
X217435465Y-55145972D01*
X217220811Y-55440084D01*
X217040788Y-55685066D01*
X216893792Y-55883127D01*
X216778219Y-56036473D01*
X216692463Y-56147313D01*
X216634921Y-56217852D01*
X216603987Y-56250299D01*
X216598500Y-56253094D01*
X216554293Y-56222513D01*
X216463900Y-56142672D01*
X216339934Y-56025228D01*
X216195007Y-55881841D01*
X216175167Y-55861784D01*
X216003297Y-55691839D01*
X215790676Y-55488010D01*
X215560364Y-55272064D01*
X215335421Y-55065767D01*
X215257879Y-54995979D01*
X215067789Y-54823080D01*
X214889597Y-54655743D01*
X214737608Y-54507791D01*
X214626129Y-54393047D01*
X214583317Y-54344254D01*
X214445045Y-54172192D01*
X214603129Y-54035538D01*
X214668056Y-53984854D01*
X214794966Y-53890870D01*
X214978198Y-53757580D01*
X215212090Y-53588978D01*
X215490982Y-53389056D01*
X215809212Y-53161808D01*
X216161119Y-52911228D01*
X216541041Y-52641308D01*
X216943319Y-52356042D01*
X217362290Y-52059423D01*
X217792293Y-51755444D01*
X218227667Y-51448099D01*
X218662751Y-51141381D01*
X219091883Y-50839284D01*
X219509403Y-50545800D01*
X219909649Y-50264923D01*
X220286961Y-50000647D01*
X220635676Y-49756964D01*
X220950134Y-49537868D01*
X221224674Y-49347352D01*
X221453634Y-49189410D01*
X221631352Y-49068035D01*
X221752169Y-48987219D01*
X221810423Y-48950957D01*
X221813180Y-48949695D01*
X221834678Y-48942703D01*
X221847538Y-48944153D01*
G37*
X221847538Y-48944153D02*
X221848190Y-48959335D01*
X221833067Y-48993539D01*
X221798597Y-49052054D01*
X221741212Y-49140172D01*
X221657343Y-49263180D01*
X221543420Y-49426369D01*
X221395875Y-49635030D01*
X221211137Y-49894451D01*
X220985638Y-50209922D01*
X220715809Y-50586734D01*
X220591988Y-50759555D01*
X220042516Y-51526162D01*
X219540512Y-52225982D01*
X219084372Y-52861222D01*
X218672490Y-53434088D01*
X218303264Y-53946790D01*
X217975087Y-54401532D01*
X217686356Y-54800524D01*
X217435465Y-55145972D01*
X217220811Y-55440084D01*
X217040788Y-55685066D01*
X216893792Y-55883127D01*
X216778219Y-56036473D01*
X216692463Y-56147313D01*
X216634921Y-56217852D01*
X216603987Y-56250299D01*
X216598500Y-56253094D01*
X216554293Y-56222513D01*
X216463900Y-56142672D01*
X216339934Y-56025228D01*
X216195007Y-55881841D01*
X216175167Y-55861784D01*
X216003297Y-55691839D01*
X215790676Y-55488010D01*
X215560364Y-55272064D01*
X215335421Y-55065767D01*
X215257879Y-54995979D01*
X215067789Y-54823080D01*
X214889597Y-54655743D01*
X214737608Y-54507791D01*
X214626129Y-54393047D01*
X214583317Y-54344254D01*
X214445045Y-54172192D01*
X214603129Y-54035538D01*
X214668056Y-53984854D01*
X214794966Y-53890870D01*
X214978198Y-53757580D01*
X215212090Y-53588978D01*
X215490982Y-53389056D01*
X215809212Y-53161808D01*
X216161119Y-52911228D01*
X216541041Y-52641308D01*
X216943319Y-52356042D01*
X217362290Y-52059423D01*
X217792293Y-51755444D01*
X218227667Y-51448099D01*
X218662751Y-51141381D01*
X219091883Y-50839284D01*
X219509403Y-50545800D01*
X219909649Y-50264923D01*
X220286961Y-50000647D01*
X220635676Y-49756964D01*
X220950134Y-49537868D01*
X221224674Y-49347352D01*
X221453634Y-49189410D01*
X221631352Y-49068035D01*
X221752169Y-48987219D01*
X221810423Y-48950957D01*
X221813180Y-48949695D01*
X221834678Y-48942703D01*
X221847538Y-48944153D01*
G36*
X213347257Y-55068942D02*
G01*
X213387398Y-55157211D01*
X213397524Y-55184139D01*
X213439001Y-55275557D01*
X213507512Y-55390412D01*
X213607973Y-55535177D01*
X213745304Y-55716321D01*
X213924420Y-55940317D01*
X214150239Y-56213635D01*
X214427678Y-56542746D01*
X214449032Y-56567891D01*
X214690645Y-56854688D01*
X214879831Y-57085314D01*
X215021149Y-57266215D01*
X215119158Y-57403839D01*
X215178416Y-57504634D01*
X215203481Y-57575047D01*
X215198913Y-57621525D01*
X215196783Y-57625478D01*
X215128003Y-57730456D01*
X215023824Y-57875772D01*
X214893529Y-58049792D01*
X214746399Y-58240880D01*
X214591714Y-58437401D01*
X214438756Y-58627719D01*
X214296805Y-58800199D01*
X214175144Y-58943207D01*
X214083053Y-59045106D01*
X214029814Y-59094261D01*
X214023001Y-59096989D01*
X213970496Y-59072835D01*
X213867193Y-59007827D01*
X213729434Y-58912692D01*
X213614000Y-58828520D01*
X213338718Y-58614736D01*
X213030167Y-58358343D01*
X212682643Y-58054338D01*
X212290439Y-57697724D01*
X211847852Y-57283500D01*
X211809818Y-57247459D01*
X211596138Y-57042958D01*
X211439171Y-56887764D01*
X211332582Y-56774680D01*
X211270032Y-56696505D01*
X211245186Y-56646042D01*
X211251706Y-56616091D01*
X211252927Y-56614818D01*
X211303955Y-56571541D01*
X211409670Y-56487095D01*
X211560056Y-56369146D01*
X211745098Y-56225362D01*
X211954779Y-56063411D01*
X212179084Y-55890959D01*
X212407998Y-55715674D01*
X212631503Y-55545223D01*
X212839585Y-55387273D01*
X213022228Y-55249491D01*
X213169416Y-55139546D01*
X213271134Y-55065103D01*
X213317364Y-55033830D01*
X213318832Y-55033334D01*
X213347257Y-55068942D01*
G37*
X213347257Y-55068942D02*
X213387398Y-55157211D01*
X213397524Y-55184139D01*
X213439001Y-55275557D01*
X213507512Y-55390412D01*
X213607973Y-55535177D01*
X213745304Y-55716321D01*
X213924420Y-55940317D01*
X214150239Y-56213635D01*
X214427678Y-56542746D01*
X214449032Y-56567891D01*
X214690645Y-56854688D01*
X214879831Y-57085314D01*
X215021149Y-57266215D01*
X215119158Y-57403839D01*
X215178416Y-57504634D01*
X215203481Y-57575047D01*
X215198913Y-57621525D01*
X215196783Y-57625478D01*
X215128003Y-57730456D01*
X215023824Y-57875772D01*
X214893529Y-58049792D01*
X214746399Y-58240880D01*
X214591714Y-58437401D01*
X214438756Y-58627719D01*
X214296805Y-58800199D01*
X214175144Y-58943207D01*
X214083053Y-59045106D01*
X214029814Y-59094261D01*
X214023001Y-59096989D01*
X213970496Y-59072835D01*
X213867193Y-59007827D01*
X213729434Y-58912692D01*
X213614000Y-58828520D01*
X213338718Y-58614736D01*
X213030167Y-58358343D01*
X212682643Y-58054338D01*
X212290439Y-57697724D01*
X211847852Y-57283500D01*
X211809818Y-57247459D01*
X211596138Y-57042958D01*
X211439171Y-56887764D01*
X211332582Y-56774680D01*
X211270032Y-56696505D01*
X211245186Y-56646042D01*
X211251706Y-56616091D01*
X211252927Y-56614818D01*
X211303955Y-56571541D01*
X211409670Y-56487095D01*
X211560056Y-56369146D01*
X211745098Y-56225362D01*
X211954779Y-56063411D01*
X212179084Y-55890959D01*
X212407998Y-55715674D01*
X212631503Y-55545223D01*
X212839585Y-55387273D01*
X213022228Y-55249491D01*
X213169416Y-55139546D01*
X213271134Y-55065103D01*
X213317364Y-55033830D01*
X213318832Y-55033334D01*
X213347257Y-55068942D01*
G36*
X205689048Y-56189614D02*
G01*
X206202098Y-56229529D01*
X206666877Y-56300736D01*
X207099731Y-56406507D01*
X207517010Y-56550114D01*
X207935062Y-56734828D01*
X207962613Y-56748316D01*
X208354686Y-56970401D01*
X208716650Y-57239180D01*
X209062867Y-57566804D01*
X209407704Y-57965423D01*
X209420288Y-57981270D01*
X209928231Y-58578546D01*
X210468447Y-59131251D01*
X211028738Y-59628177D01*
X211596909Y-60058118D01*
X211890173Y-60250717D01*
X212338172Y-60504922D01*
X212841882Y-60749024D01*
X213374012Y-60971847D01*
X213907271Y-61162215D01*
X214414368Y-61308948D01*
X214555917Y-61342477D01*
X214685674Y-61376280D01*
X214773977Y-61408548D01*
X214799334Y-61428051D01*
X214764720Y-61466769D01*
X214670134Y-61538189D01*
X214529460Y-61633615D01*
X214356580Y-61744350D01*
X214165379Y-61861698D01*
X213969738Y-61976961D01*
X213783542Y-62081444D01*
X213620674Y-62166450D01*
X213620068Y-62166749D01*
X213244850Y-62335295D01*
X212837006Y-62484688D01*
X212375139Y-62622420D01*
X212153500Y-62680200D01*
X211775551Y-62754274D01*
X211366338Y-62798433D01*
X210953187Y-62811786D01*
X210563420Y-62793438D01*
X210227334Y-62743154D01*
X209632021Y-62576258D01*
X209026442Y-62338423D01*
X208429164Y-62038314D01*
X207858755Y-61684597D01*
X207666167Y-61547727D01*
X207263913Y-61225696D01*
X206840443Y-60839636D01*
X206408272Y-60403175D01*
X205979914Y-59929942D01*
X205567882Y-59433567D01*
X205184691Y-58927677D01*
X204949744Y-58589334D01*
X204813341Y-58378602D01*
X204664417Y-58137481D01*
X204508541Y-57876130D01*
X204351280Y-57604709D01*
X204198203Y-57333381D01*
X204054879Y-57072304D01*
X203926874Y-56831639D01*
X203819758Y-56621546D01*
X203739097Y-56452187D01*
X203690462Y-56333721D01*
X203679419Y-56276309D01*
X203680891Y-56273998D01*
X203746549Y-56249896D01*
X203886595Y-56228134D01*
X204090769Y-56209405D01*
X204348809Y-56194397D01*
X204650452Y-56183802D01*
X204985438Y-56178312D01*
X205111377Y-56177719D01*
X205689048Y-56189614D01*
G37*
X205689048Y-56189614D02*
X206202098Y-56229529D01*
X206666877Y-56300736D01*
X207099731Y-56406507D01*
X207517010Y-56550114D01*
X207935062Y-56734828D01*
X207962613Y-56748316D01*
X208354686Y-56970401D01*
X208716650Y-57239180D01*
X209062867Y-57566804D01*
X209407704Y-57965423D01*
X209420288Y-57981270D01*
X209928231Y-58578546D01*
X210468447Y-59131251D01*
X211028738Y-59628177D01*
X211596909Y-60058118D01*
X211890173Y-60250717D01*
X212338172Y-60504922D01*
X212841882Y-60749024D01*
X213374012Y-60971847D01*
X213907271Y-61162215D01*
X214414368Y-61308948D01*
X214555917Y-61342477D01*
X214685674Y-61376280D01*
X214773977Y-61408548D01*
X214799334Y-61428051D01*
X214764720Y-61466769D01*
X214670134Y-61538189D01*
X214529460Y-61633615D01*
X214356580Y-61744350D01*
X214165379Y-61861698D01*
X213969738Y-61976961D01*
X213783542Y-62081444D01*
X213620674Y-62166450D01*
X213620068Y-62166749D01*
X213244850Y-62335295D01*
X212837006Y-62484688D01*
X212375139Y-62622420D01*
X212153500Y-62680200D01*
X211775551Y-62754274D01*
X211366338Y-62798433D01*
X210953187Y-62811786D01*
X210563420Y-62793438D01*
X210227334Y-62743154D01*
X209632021Y-62576258D01*
X209026442Y-62338423D01*
X208429164Y-62038314D01*
X207858755Y-61684597D01*
X207666167Y-61547727D01*
X207263913Y-61225696D01*
X206840443Y-60839636D01*
X206408272Y-60403175D01*
X205979914Y-59929942D01*
X205567882Y-59433567D01*
X205184691Y-58927677D01*
X204949744Y-58589334D01*
X204813341Y-58378602D01*
X204664417Y-58137481D01*
X204508541Y-57876130D01*
X204351280Y-57604709D01*
X204198203Y-57333381D01*
X204054879Y-57072304D01*
X203926874Y-56831639D01*
X203819758Y-56621546D01*
X203739097Y-56452187D01*
X203690462Y-56333721D01*
X203679419Y-56276309D01*
X203680891Y-56273998D01*
X203746549Y-56249896D01*
X203886595Y-56228134D01*
X204090769Y-56209405D01*
X204348809Y-56194397D01*
X204650452Y-56183802D01*
X204985438Y-56178312D01*
X205111377Y-56177719D01*
X205689048Y-56189614D01*
G36*
X196975583Y-58516443D02*
G01*
X197023566Y-58622466D01*
X197082254Y-58773342D01*
X197122565Y-58887107D01*
X197284546Y-59313921D01*
X197465253Y-59689308D01*
X197676122Y-60029100D01*
X197928586Y-60349128D01*
X198234080Y-60665225D01*
X198604039Y-60993224D01*
X198702084Y-61074162D01*
X198853910Y-61199264D01*
X198978308Y-61304051D01*
X199062490Y-61377589D01*
X199093666Y-61408942D01*
X199093667Y-61408982D01*
X199059347Y-61434895D01*
X198971135Y-61485192D01*
X198892584Y-61526266D01*
X198500881Y-61766902D01*
X198160815Y-62066696D01*
X197869243Y-62429603D01*
X197623025Y-62859574D01*
X197419016Y-63360562D01*
X197407647Y-63394167D01*
X197354472Y-63565006D01*
X197287397Y-63798577D01*
X197210822Y-64077752D01*
X197129146Y-64385401D01*
X197046766Y-64704396D01*
X196968083Y-65017606D01*
X196897494Y-65307903D01*
X196839399Y-65558159D01*
X196798196Y-65751243D01*
X196787047Y-65810818D01*
X196744668Y-66114117D01*
X196710137Y-66483616D01*
X196684177Y-66901146D01*
X196667508Y-67348543D01*
X196660852Y-67807638D01*
X196664931Y-68260265D01*
X196676211Y-68601167D01*
X196690079Y-68942994D01*
X196695645Y-69219676D01*
X196690640Y-69450515D01*
X196672797Y-69654819D01*
X196639850Y-69851891D01*
X196589529Y-70061037D01*
X196519569Y-70301561D01*
X196450747Y-70520738D01*
X196342639Y-70865889D01*
X196259846Y-71150058D01*
X196199122Y-71391965D01*
X196157221Y-71610333D01*
X196130898Y-71823882D01*
X196116907Y-72051334D01*
X196112002Y-72311411D01*
X196111999Y-72474667D01*
X196114216Y-72689542D01*
X196120008Y-72884378D01*
X196130880Y-73073940D01*
X196148337Y-73272989D01*
X196173885Y-73496290D01*
X196209030Y-73758606D01*
X196255278Y-74074701D01*
X196314133Y-74459337D01*
X196314907Y-74464334D01*
X196401335Y-75025378D01*
X196475051Y-75513013D01*
X196537151Y-75937364D01*
X196588731Y-76308554D01*
X196630887Y-76636708D01*
X196664715Y-76931950D01*
X196691310Y-77204404D01*
X196711769Y-77464194D01*
X196727187Y-77721445D01*
X196738660Y-77986281D01*
X196747285Y-78268826D01*
X196752772Y-78509654D01*
X196759345Y-79041339D01*
X196754699Y-79501602D01*
X196737290Y-79903131D01*
X196705574Y-80258618D01*
X196658007Y-80580752D01*
X196593045Y-80882223D01*
X196509143Y-81175720D01*
X196404757Y-81473934D01*
X196386103Y-81522798D01*
X196156714Y-82001542D01*
X195855651Y-82439033D01*
X195487813Y-82830142D01*
X195058099Y-83169737D01*
X194571410Y-83452688D01*
X194518635Y-83478223D01*
X194318074Y-83566476D01*
X194101610Y-83649952D01*
X193883271Y-83724667D01*
X193677090Y-83786634D01*
X193497095Y-83831868D01*
X193357317Y-83856384D01*
X193271787Y-83856197D01*
X193251667Y-83838104D01*
X193276984Y-83797530D01*
X193345529Y-83706435D01*
X193446188Y-83579226D01*
X193542805Y-83460615D01*
X193897315Y-82990962D01*
X194189680Y-82513199D01*
X194424510Y-82014950D01*
X194606419Y-81483841D01*
X194740017Y-80907495D01*
X194829917Y-80273537D01*
X194860343Y-79925195D01*
X194881478Y-79390096D01*
X194870319Y-78817436D01*
X194826110Y-78201611D01*
X194748097Y-77537022D01*
X194635524Y-76818066D01*
X194487638Y-76039142D01*
X194303683Y-75194649D01*
X194118623Y-74422000D01*
X193915913Y-73603891D01*
X193733172Y-72862131D01*
X193569284Y-72191069D01*
X193423131Y-71585055D01*
X193293597Y-71038440D01*
X193179565Y-70545572D01*
X193079919Y-70100803D01*
X192993542Y-69698480D01*
X192919317Y-69332955D01*
X192856127Y-68998576D01*
X192802857Y-68689695D01*
X192758389Y-68400659D01*
X192721607Y-68125820D01*
X192691394Y-67859527D01*
X192666633Y-67596130D01*
X192646208Y-67329978D01*
X192629002Y-67055421D01*
X192616599Y-66821794D01*
X192595308Y-66084375D01*
X192609390Y-65410925D01*
X192660241Y-64787864D01*
X192749259Y-64201609D01*
X192877840Y-63638580D01*
X192980038Y-63288894D01*
X193246804Y-62558133D01*
X193569206Y-61881513D01*
X193955364Y-61243105D01*
X194191798Y-60910589D01*
X194378477Y-60677578D01*
X194612600Y-60410218D01*
X194875909Y-60127562D01*
X195150145Y-59848663D01*
X195417049Y-59592571D01*
X195658362Y-59378339D01*
X195667928Y-59370322D01*
X195830774Y-59238730D01*
X196017322Y-59095237D01*
X196215132Y-58948577D01*
X196411762Y-58807483D01*
X196594771Y-58680689D01*
X196751717Y-58576930D01*
X196870160Y-58504939D01*
X196937658Y-58473451D01*
X196945927Y-58473143D01*
X196975583Y-58516443D01*
G37*
X196975583Y-58516443D02*
X197023566Y-58622466D01*
X197082254Y-58773342D01*
X197122565Y-58887107D01*
X197284546Y-59313921D01*
X197465253Y-59689308D01*
X197676122Y-60029100D01*
X197928586Y-60349128D01*
X198234080Y-60665225D01*
X198604039Y-60993224D01*
X198702084Y-61074162D01*
X198853910Y-61199264D01*
X198978308Y-61304051D01*
X199062490Y-61377589D01*
X199093666Y-61408942D01*
X199093667Y-61408982D01*
X199059347Y-61434895D01*
X198971135Y-61485192D01*
X198892584Y-61526266D01*
X198500881Y-61766902D01*
X198160815Y-62066696D01*
X197869243Y-62429603D01*
X197623025Y-62859574D01*
X197419016Y-63360562D01*
X197407647Y-63394167D01*
X197354472Y-63565006D01*
X197287397Y-63798577D01*
X197210822Y-64077752D01*
X197129146Y-64385401D01*
X197046766Y-64704396D01*
X196968083Y-65017606D01*
X196897494Y-65307903D01*
X196839399Y-65558159D01*
X196798196Y-65751243D01*
X196787047Y-65810818D01*
X196744668Y-66114117D01*
X196710137Y-66483616D01*
X196684177Y-66901146D01*
X196667508Y-67348543D01*
X196660852Y-67807638D01*
X196664931Y-68260265D01*
X196676211Y-68601167D01*
X196690079Y-68942994D01*
X196695645Y-69219676D01*
X196690640Y-69450515D01*
X196672797Y-69654819D01*
X196639850Y-69851891D01*
X196589529Y-70061037D01*
X196519569Y-70301561D01*
X196450747Y-70520738D01*
X196342639Y-70865889D01*
X196259846Y-71150058D01*
X196199122Y-71391965D01*
X196157221Y-71610333D01*
X196130898Y-71823882D01*
X196116907Y-72051334D01*
X196112002Y-72311411D01*
X196111999Y-72474667D01*
X196114216Y-72689542D01*
X196120008Y-72884378D01*
X196130880Y-73073940D01*
X196148337Y-73272989D01*
X196173885Y-73496290D01*
X196209030Y-73758606D01*
X196255278Y-74074701D01*
X196314133Y-74459337D01*
X196314907Y-74464334D01*
X196401335Y-75025378D01*
X196475051Y-75513013D01*
X196537151Y-75937364D01*
X196588731Y-76308554D01*
X196630887Y-76636708D01*
X196664715Y-76931950D01*
X196691310Y-77204404D01*
X196711769Y-77464194D01*
X196727187Y-77721445D01*
X196738660Y-77986281D01*
X196747285Y-78268826D01*
X196752772Y-78509654D01*
X196759345Y-79041339D01*
X196754699Y-79501602D01*
X196737290Y-79903131D01*
X196705574Y-80258618D01*
X196658007Y-80580752D01*
X196593045Y-80882223D01*
X196509143Y-81175720D01*
X196404757Y-81473934D01*
X196386103Y-81522798D01*
X196156714Y-82001542D01*
X195855651Y-82439033D01*
X195487813Y-82830142D01*
X195058099Y-83169737D01*
X194571410Y-83452688D01*
X194518635Y-83478223D01*
X194318074Y-83566476D01*
X194101610Y-83649952D01*
X193883271Y-83724667D01*
X193677090Y-83786634D01*
X193497095Y-83831868D01*
X193357317Y-83856384D01*
X193271787Y-83856197D01*
X193251667Y-83838104D01*
X193276984Y-83797530D01*
X193345529Y-83706435D01*
X193446188Y-83579226D01*
X193542805Y-83460615D01*
X193897315Y-82990962D01*
X194189680Y-82513199D01*
X194424510Y-82014950D01*
X194606419Y-81483841D01*
X194740017Y-80907495D01*
X194829917Y-80273537D01*
X194860343Y-79925195D01*
X194881478Y-79390096D01*
X194870319Y-78817436D01*
X194826110Y-78201611D01*
X194748097Y-77537022D01*
X194635524Y-76818066D01*
X194487638Y-76039142D01*
X194303683Y-75194649D01*
X194118623Y-74422000D01*
X193915913Y-73603891D01*
X193733172Y-72862131D01*
X193569284Y-72191069D01*
X193423131Y-71585055D01*
X193293597Y-71038440D01*
X193179565Y-70545572D01*
X193079919Y-70100803D01*
X192993542Y-69698480D01*
X192919317Y-69332955D01*
X192856127Y-68998576D01*
X192802857Y-68689695D01*
X192758389Y-68400659D01*
X192721607Y-68125820D01*
X192691394Y-67859527D01*
X192666633Y-67596130D01*
X192646208Y-67329978D01*
X192629002Y-67055421D01*
X192616599Y-66821794D01*
X192595308Y-66084375D01*
X192609390Y-65410925D01*
X192660241Y-64787864D01*
X192749259Y-64201609D01*
X192877840Y-63638580D01*
X192980038Y-63288894D01*
X193246804Y-62558133D01*
X193569206Y-61881513D01*
X193955364Y-61243105D01*
X194191798Y-60910589D01*
X194378477Y-60677578D01*
X194612600Y-60410218D01*
X194875909Y-60127562D01*
X195150145Y-59848663D01*
X195417049Y-59592571D01*
X195658362Y-59378339D01*
X195667928Y-59370322D01*
X195830774Y-59238730D01*
X196017322Y-59095237D01*
X196215132Y-58948577D01*
X196411762Y-58807483D01*
X196594771Y-58680689D01*
X196751717Y-58576930D01*
X196870160Y-58504939D01*
X196937658Y-58473451D01*
X196945927Y-58473143D01*
X196975583Y-58516443D01*
G36*
X169838732Y-75717098D02*
G01*
X170258752Y-75745063D01*
X170639425Y-75798831D01*
X170695733Y-75810029D01*
X171369594Y-75984100D01*
X172025153Y-76218985D01*
X172644420Y-76507075D01*
X173209405Y-76840760D01*
X173333834Y-76926012D01*
X173611119Y-77140499D01*
X173913764Y-77406668D01*
X174221882Y-77704641D01*
X174515582Y-78014537D01*
X174774978Y-78316477D01*
X174936890Y-78528334D01*
X175053995Y-78701727D01*
X175177375Y-78900182D01*
X175300027Y-79110446D01*
X175414947Y-79319267D01*
X175515132Y-79513393D01*
X175593577Y-79679574D01*
X175643280Y-79804557D01*
X175657236Y-79875091D01*
X175653256Y-79883788D01*
X175600978Y-79904649D01*
X175483735Y-79939348D01*
X175319128Y-79982983D01*
X175133000Y-80028701D01*
X174779618Y-80123912D01*
X174390131Y-80248478D01*
X173984512Y-80394486D01*
X173582736Y-80554023D01*
X173204776Y-80719175D01*
X172870606Y-80882028D01*
X172611341Y-81027747D01*
X172479375Y-81109306D01*
X172350025Y-80930070D01*
X172223925Y-80774972D01*
X172050830Y-80588528D01*
X171851094Y-80390700D01*
X171645069Y-80201449D01*
X171453109Y-80040739D01*
X171407667Y-80005831D01*
X171120937Y-79816828D01*
X170783574Y-79636850D01*
X170429209Y-79483166D01*
X170295356Y-79434662D01*
X169803997Y-79310401D01*
X169283054Y-79258725D01*
X168744663Y-79278543D01*
X168200957Y-79368764D01*
X167664071Y-79528298D01*
X167238828Y-79709386D01*
X166888473Y-79901007D01*
X166618448Y-80095988D01*
X166424431Y-80299242D01*
X166302099Y-80515682D01*
X166247131Y-80750222D01*
X166243000Y-80841325D01*
X166282875Y-81155118D01*
X166399104Y-81436903D01*
X166586596Y-81677800D01*
X166828200Y-81861935D01*
X166966620Y-81931710D01*
X167101378Y-81967126D01*
X167273176Y-81978146D01*
X167303681Y-81978310D01*
X167433041Y-81974777D01*
X167544062Y-81959389D01*
X167659137Y-81925262D01*
X167800664Y-81865513D01*
X167991037Y-81773259D01*
X168023347Y-81757115D01*
X168219979Y-81663301D01*
X168409635Y-81580897D01*
X168568084Y-81519999D01*
X168656000Y-81493567D01*
X168919926Y-81456453D01*
X169202217Y-81452128D01*
X169469738Y-81479301D01*
X169680995Y-81533479D01*
X169873430Y-81626967D01*
X170089744Y-81765135D01*
X170304071Y-81928372D01*
X170490543Y-82097070D01*
X170617643Y-82243559D01*
X170746154Y-82423952D01*
X170664160Y-82524874D01*
X170605739Y-82595418D01*
X170506141Y-82714289D01*
X170378989Y-82865275D01*
X170237908Y-83032164D01*
X170228745Y-83042982D01*
X169619615Y-83822124D01*
X169087160Y-84632038D01*
X168629956Y-85475981D01*
X168246581Y-86357208D01*
X167935611Y-87278975D01*
X167695625Y-88244538D01*
X167530458Y-89217500D01*
X167497317Y-89538938D01*
X167473699Y-89923800D01*
X167459619Y-90351378D01*
X167455092Y-90800965D01*
X167460131Y-91251854D01*
X167474750Y-91683336D01*
X167498966Y-92074705D01*
X167528267Y-92369831D01*
X167694871Y-93423241D01*
X167929232Y-94431639D01*
X168233959Y-95404092D01*
X168611662Y-96349666D01*
X168777207Y-96708719D01*
X169025124Y-97226990D01*
X168906146Y-97553333D01*
X168698802Y-98048760D01*
X168431003Y-98570710D01*
X168113669Y-99100161D01*
X167757719Y-99618093D01*
X167603697Y-99822000D01*
X167426951Y-100034903D01*
X167198373Y-100288077D01*
X166931616Y-100568124D01*
X166640330Y-100861646D01*
X166338168Y-101155245D01*
X166038782Y-101435523D01*
X165755823Y-101689083D01*
X165502944Y-101902525D01*
X165403787Y-101981000D01*
X165202443Y-102133223D01*
X164970446Y-102303738D01*
X164720809Y-102483465D01*
X164466545Y-102663325D01*
X164220665Y-102834238D01*
X163996181Y-102987125D01*
X163806107Y-103112907D01*
X163663453Y-103202504D01*
X163607750Y-103234217D01*
X163522931Y-103266790D01*
X163491334Y-103250932D01*
X163491334Y-103250878D01*
X163499319Y-103194225D01*
X163521098Y-103072216D01*
X163553408Y-102902426D01*
X163592984Y-102702429D01*
X163595715Y-102688874D01*
X163662371Y-102349126D01*
X163716440Y-102047154D01*
X163759195Y-101767830D01*
X163791910Y-101496029D01*
X163815856Y-101216623D01*
X163832307Y-100914487D01*
X163842536Y-100574492D01*
X163847816Y-100181514D01*
X163849419Y-99720424D01*
X163849427Y-99673834D01*
X163848116Y-99212527D01*
X163843934Y-98823074D01*
X163836424Y-98492696D01*
X163825129Y-98208615D01*
X163809593Y-97958052D01*
X163789359Y-97728227D01*
X163775302Y-97599500D01*
X163708339Y-97051280D01*
X163638527Y-96536452D01*
X163562805Y-96037355D01*
X163478108Y-95536327D01*
X163381374Y-95015707D01*
X163269541Y-94457831D01*
X163139545Y-93845039D01*
X163065625Y-93507307D01*
X162906147Y-92771120D01*
X162768832Y-92104414D01*
X162652211Y-91495368D01*
X162554815Y-90932159D01*
X162475176Y-90402968D01*
X162411825Y-89895972D01*
X162363292Y-89399351D01*
X162328109Y-88901283D01*
X162304807Y-88389947D01*
X162291917Y-87853522D01*
X162287971Y-87280187D01*
X162287983Y-87249000D01*
X162297966Y-86447800D01*
X162327949Y-85712665D01*
X162379767Y-85026969D01*
X162455256Y-84374081D01*
X162556249Y-83737374D01*
X162684583Y-83100218D01*
X162799517Y-82613500D01*
X163041095Y-81766595D01*
X163334588Y-80945719D01*
X163675300Y-80159797D01*
X164058533Y-79417751D01*
X164479590Y-78728503D01*
X164933775Y-78100978D01*
X165416391Y-77544098D01*
X165528266Y-77429599D01*
X166012282Y-77001918D01*
X166556962Y-76621913D01*
X167148596Y-76296801D01*
X167773472Y-76033800D01*
X168417882Y-75840125D01*
X168641638Y-75790822D01*
X169000270Y-75739698D01*
X169409269Y-75715216D01*
X169838732Y-75717098D01*
G37*
X169838732Y-75717098D02*
X170258752Y-75745063D01*
X170639425Y-75798831D01*
X170695733Y-75810029D01*
X171369594Y-75984100D01*
X172025153Y-76218985D01*
X172644420Y-76507075D01*
X173209405Y-76840760D01*
X173333834Y-76926012D01*
X173611119Y-77140499D01*
X173913764Y-77406668D01*
X174221882Y-77704641D01*
X174515582Y-78014537D01*
X174774978Y-78316477D01*
X174936890Y-78528334D01*
X175053995Y-78701727D01*
X175177375Y-78900182D01*
X175300027Y-79110446D01*
X175414947Y-79319267D01*
X175515132Y-79513393D01*
X175593577Y-79679574D01*
X175643280Y-79804557D01*
X175657236Y-79875091D01*
X175653256Y-79883788D01*
X175600978Y-79904649D01*
X175483735Y-79939348D01*
X175319128Y-79982983D01*
X175133000Y-80028701D01*
X174779618Y-80123912D01*
X174390131Y-80248478D01*
X173984512Y-80394486D01*
X173582736Y-80554023D01*
X173204776Y-80719175D01*
X172870606Y-80882028D01*
X172611341Y-81027747D01*
X172479375Y-81109306D01*
X172350025Y-80930070D01*
X172223925Y-80774972D01*
X172050830Y-80588528D01*
X171851094Y-80390700D01*
X171645069Y-80201449D01*
X171453109Y-80040739D01*
X171407667Y-80005831D01*
X171120937Y-79816828D01*
X170783574Y-79636850D01*
X170429209Y-79483166D01*
X170295356Y-79434662D01*
X169803997Y-79310401D01*
X169283054Y-79258725D01*
X168744663Y-79278543D01*
X168200957Y-79368764D01*
X167664071Y-79528298D01*
X167238828Y-79709386D01*
X166888473Y-79901007D01*
X166618448Y-80095988D01*
X166424431Y-80299242D01*
X166302099Y-80515682D01*
X166247131Y-80750222D01*
X166243000Y-80841325D01*
X166282875Y-81155118D01*
X166399104Y-81436903D01*
X166586596Y-81677800D01*
X166828200Y-81861935D01*
X166966620Y-81931710D01*
X167101378Y-81967126D01*
X167273176Y-81978146D01*
X167303681Y-81978310D01*
X167433041Y-81974777D01*
X167544062Y-81959389D01*
X167659137Y-81925262D01*
X167800664Y-81865513D01*
X167991037Y-81773259D01*
X168023347Y-81757115D01*
X168219979Y-81663301D01*
X168409635Y-81580897D01*
X168568084Y-81519999D01*
X168656000Y-81493567D01*
X168919926Y-81456453D01*
X169202217Y-81452128D01*
X169469738Y-81479301D01*
X169680995Y-81533479D01*
X169873430Y-81626967D01*
X170089744Y-81765135D01*
X170304071Y-81928372D01*
X170490543Y-82097070D01*
X170617643Y-82243559D01*
X170746154Y-82423952D01*
X170664160Y-82524874D01*
X170605739Y-82595418D01*
X170506141Y-82714289D01*
X170378989Y-82865275D01*
X170237908Y-83032164D01*
X170228745Y-83042982D01*
X169619615Y-83822124D01*
X169087160Y-84632038D01*
X168629956Y-85475981D01*
X168246581Y-86357208D01*
X167935611Y-87278975D01*
X167695625Y-88244538D01*
X167530458Y-89217500D01*
X167497317Y-89538938D01*
X167473699Y-89923800D01*
X167459619Y-90351378D01*
X167455092Y-90800965D01*
X167460131Y-91251854D01*
X167474750Y-91683336D01*
X167498966Y-92074705D01*
X167528267Y-92369831D01*
X167694871Y-93423241D01*
X167929232Y-94431639D01*
X168233959Y-95404092D01*
X168611662Y-96349666D01*
X168777207Y-96708719D01*
X169025124Y-97226990D01*
X168906146Y-97553333D01*
X168698802Y-98048760D01*
X168431003Y-98570710D01*
X168113669Y-99100161D01*
X167757719Y-99618093D01*
X167603697Y-99822000D01*
X167426951Y-100034903D01*
X167198373Y-100288077D01*
X166931616Y-100568124D01*
X166640330Y-100861646D01*
X166338168Y-101155245D01*
X166038782Y-101435523D01*
X165755823Y-101689083D01*
X165502944Y-101902525D01*
X165403787Y-101981000D01*
X165202443Y-102133223D01*
X164970446Y-102303738D01*
X164720809Y-102483465D01*
X164466545Y-102663325D01*
X164220665Y-102834238D01*
X163996181Y-102987125D01*
X163806107Y-103112907D01*
X163663453Y-103202504D01*
X163607750Y-103234217D01*
X163522931Y-103266790D01*
X163491334Y-103250932D01*
X163491334Y-103250878D01*
X163499319Y-103194225D01*
X163521098Y-103072216D01*
X163553408Y-102902426D01*
X163592984Y-102702429D01*
X163595715Y-102688874D01*
X163662371Y-102349126D01*
X163716440Y-102047154D01*
X163759195Y-101767830D01*
X163791910Y-101496029D01*
X163815856Y-101216623D01*
X163832307Y-100914487D01*
X163842536Y-100574492D01*
X163847816Y-100181514D01*
X163849419Y-99720424D01*
X163849427Y-99673834D01*
X163848116Y-99212527D01*
X163843934Y-98823074D01*
X163836424Y-98492696D01*
X163825129Y-98208615D01*
X163809593Y-97958052D01*
X163789359Y-97728227D01*
X163775302Y-97599500D01*
X163708339Y-97051280D01*
X163638527Y-96536452D01*
X163562805Y-96037355D01*
X163478108Y-95536327D01*
X163381374Y-95015707D01*
X163269541Y-94457831D01*
X163139545Y-93845039D01*
X163065625Y-93507307D01*
X162906147Y-92771120D01*
X162768832Y-92104414D01*
X162652211Y-91495368D01*
X162554815Y-90932159D01*
X162475176Y-90402968D01*
X162411825Y-89895972D01*
X162363292Y-89399351D01*
X162328109Y-88901283D01*
X162304807Y-88389947D01*
X162291917Y-87853522D01*
X162287971Y-87280187D01*
X162287983Y-87249000D01*
X162297966Y-86447800D01*
X162327949Y-85712665D01*
X162379767Y-85026969D01*
X162455256Y-84374081D01*
X162556249Y-83737374D01*
X162684583Y-83100218D01*
X162799517Y-82613500D01*
X163041095Y-81766595D01*
X163334588Y-80945719D01*
X163675300Y-80159797D01*
X164058533Y-79417751D01*
X164479590Y-78728503D01*
X164933775Y-78100978D01*
X165416391Y-77544098D01*
X165528266Y-77429599D01*
X166012282Y-77001918D01*
X166556962Y-76621913D01*
X167148596Y-76296801D01*
X167773472Y-76033800D01*
X168417882Y-75840125D01*
X168641638Y-75790822D01*
X169000270Y-75739698D01*
X169409269Y-75715216D01*
X169838732Y-75717098D01*
%TD*%
%TO.C,SW1*%
G36*
G01*
X219502030Y-80086692D02*
X220015061Y-78677153D01*
G75*
G02*
X220976345Y-78228899I704769J-256515D01*
G01*
X225204962Y-79767990D01*
G75*
G02*
X225653216Y-80729274I-256515J-704769D01*
G01*
X225140185Y-82138813D01*
G75*
G02*
X224178901Y-82587067I-704769J256515D01*
G01*
X219950284Y-81047976D01*
G75*
G02*
X219502030Y-80086692I256515J704769D01*
G01*
G37*
G36*
G01*
X196949407Y-71878209D02*
X197462438Y-70468670D01*
G75*
G02*
X198423722Y-70020416I704769J-256515D01*
G01*
X202652339Y-71559507D01*
G75*
G02*
X203100593Y-72520791I-256515J-704769D01*
G01*
X202587562Y-73930330D01*
G75*
G02*
X201626278Y-74378584I-704769J256515D01*
G01*
X197397661Y-72839493D01*
G75*
G02*
X196949407Y-71878209I256515J704769D01*
G01*
G37*
%TD*%
D11*
%TO.C,D4*%
G36*
X178647952Y-87523582D02*
G01*
X175112418Y-83988048D01*
X176190048Y-82910418D01*
X179725582Y-86445952D01*
X178647952Y-87523582D01*
G37*
G36*
X176851901Y-89319633D02*
G01*
X173316367Y-85784099D01*
X174393997Y-84706469D01*
X177929531Y-88242003D01*
X176851901Y-89319633D01*
G37*
%TD*%
%TO.C,D3*%
G36*
X205936564Y-80141911D02*
G01*
X201606436Y-77641911D01*
X202368436Y-76322089D01*
X206698564Y-78822089D01*
X205936564Y-80141911D01*
G37*
G36*
X204666564Y-82341615D02*
G01*
X200336436Y-79841615D01*
X201098436Y-78521793D01*
X205428564Y-81021793D01*
X204666564Y-82341615D01*
G37*
%TD*%
D12*
%TO.C,D2*%
X210582000Y-68525000D03*
X208042000Y-68525000D03*
%TD*%
D13*
%TO.C,D1*%
X174379500Y-92186000D03*
X174379500Y-94726000D03*
%TD*%
D14*
%TO.C,BT1*%
X180358500Y-93853000D03*
X209658500Y-93853000D03*
%TD*%
M02*
