%TF.GenerationSoftware,KiCad,Pcbnew,7.0.1*%
%TF.CreationDate,2023-04-19T19:47:13+02:00*%
%TF.ProjectId,unicorn,756e6963-6f72-46e2-9e6b-696361645f70,rev?*%
%TF.SameCoordinates,Original*%
%TF.FileFunction,Legend,Bot*%
%TF.FilePolarity,Positive*%
%FSLAX46Y46*%
G04 Gerber Fmt 4.6, Leading zero omitted, Abs format (unit mm)*
G04 Created by KiCad (PCBNEW 7.0.1) date 2023-04-19 19:47:13*
%MOMM*%
%LPD*%
G01*
G04 APERTURE LIST*
%ADD10C,0.150000*%
%ADD11C,0.125000*%
%ADD12C,0.120000*%
G04 APERTURE END LIST*
D10*
X177482619Y-114693333D02*
X177435000Y-114740952D01*
X177435000Y-114740952D02*
X177387380Y-114883809D01*
X177387380Y-114883809D02*
X177387380Y-114979047D01*
X177387380Y-114979047D02*
X177435000Y-115121904D01*
X177435000Y-115121904D02*
X177530238Y-115217142D01*
X177530238Y-115217142D02*
X177625476Y-115264761D01*
X177625476Y-115264761D02*
X177815952Y-115312380D01*
X177815952Y-115312380D02*
X177958809Y-115312380D01*
X177958809Y-115312380D02*
X178149285Y-115264761D01*
X178149285Y-115264761D02*
X178244523Y-115217142D01*
X178244523Y-115217142D02*
X178339761Y-115121904D01*
X178339761Y-115121904D02*
X178387380Y-114979047D01*
X178387380Y-114979047D02*
X178387380Y-114883809D01*
X178387380Y-114883809D02*
X178339761Y-114740952D01*
X178339761Y-114740952D02*
X178292142Y-114693333D01*
X177482619Y-113693333D02*
X177435000Y-113740952D01*
X177435000Y-113740952D02*
X177387380Y-113883809D01*
X177387380Y-113883809D02*
X177387380Y-113979047D01*
X177387380Y-113979047D02*
X177435000Y-114121904D01*
X177435000Y-114121904D02*
X177530238Y-114217142D01*
X177530238Y-114217142D02*
X177625476Y-114264761D01*
X177625476Y-114264761D02*
X177815952Y-114312380D01*
X177815952Y-114312380D02*
X177958809Y-114312380D01*
X177958809Y-114312380D02*
X178149285Y-114264761D01*
X178149285Y-114264761D02*
X178244523Y-114217142D01*
X178244523Y-114217142D02*
X178339761Y-114121904D01*
X178339761Y-114121904D02*
X178387380Y-113979047D01*
X178387380Y-113979047D02*
X178387380Y-113883809D01*
X178387380Y-113883809D02*
X178339761Y-113740952D01*
X178339761Y-113740952D02*
X178292142Y-113693333D01*
X177768333Y-113264761D02*
X177768333Y-112502857D01*
X177911190Y-111693333D02*
X177863571Y-111550476D01*
X177863571Y-111550476D02*
X177815952Y-111502857D01*
X177815952Y-111502857D02*
X177720714Y-111455238D01*
X177720714Y-111455238D02*
X177577857Y-111455238D01*
X177577857Y-111455238D02*
X177482619Y-111502857D01*
X177482619Y-111502857D02*
X177435000Y-111550476D01*
X177435000Y-111550476D02*
X177387380Y-111645714D01*
X177387380Y-111645714D02*
X177387380Y-112026666D01*
X177387380Y-112026666D02*
X178387380Y-112026666D01*
X178387380Y-112026666D02*
X178387380Y-111693333D01*
X178387380Y-111693333D02*
X178339761Y-111598095D01*
X178339761Y-111598095D02*
X178292142Y-111550476D01*
X178292142Y-111550476D02*
X178196904Y-111502857D01*
X178196904Y-111502857D02*
X178101666Y-111502857D01*
X178101666Y-111502857D02*
X178006428Y-111550476D01*
X178006428Y-111550476D02*
X177958809Y-111598095D01*
X177958809Y-111598095D02*
X177911190Y-111693333D01*
X177911190Y-111693333D02*
X177911190Y-112026666D01*
X177863571Y-110836190D02*
X177387380Y-110836190D01*
X178387380Y-111169523D02*
X177863571Y-110836190D01*
X177863571Y-110836190D02*
X178387380Y-110502857D01*
X177768333Y-110169523D02*
X177768333Y-109407619D01*
X177435000Y-108979047D02*
X177387380Y-108836190D01*
X177387380Y-108836190D02*
X177387380Y-108598095D01*
X177387380Y-108598095D02*
X177435000Y-108502857D01*
X177435000Y-108502857D02*
X177482619Y-108455238D01*
X177482619Y-108455238D02*
X177577857Y-108407619D01*
X177577857Y-108407619D02*
X177673095Y-108407619D01*
X177673095Y-108407619D02*
X177768333Y-108455238D01*
X177768333Y-108455238D02*
X177815952Y-108502857D01*
X177815952Y-108502857D02*
X177863571Y-108598095D01*
X177863571Y-108598095D02*
X177911190Y-108788571D01*
X177911190Y-108788571D02*
X177958809Y-108883809D01*
X177958809Y-108883809D02*
X178006428Y-108931428D01*
X178006428Y-108931428D02*
X178101666Y-108979047D01*
X178101666Y-108979047D02*
X178196904Y-108979047D01*
X178196904Y-108979047D02*
X178292142Y-108931428D01*
X178292142Y-108931428D02*
X178339761Y-108883809D01*
X178339761Y-108883809D02*
X178387380Y-108788571D01*
X178387380Y-108788571D02*
X178387380Y-108550476D01*
X178387380Y-108550476D02*
X178339761Y-108407619D01*
X177673095Y-108026666D02*
X177673095Y-107550476D01*
X177387380Y-108121904D02*
X178387380Y-107788571D01*
X178387380Y-107788571D02*
X177387380Y-107455238D01*
X178054047Y-105931428D02*
X177387380Y-105931428D01*
X178435000Y-106169523D02*
X177720714Y-106407618D01*
X177720714Y-106407618D02*
X177720714Y-105788571D01*
X177482619Y-105407618D02*
X177435000Y-105359999D01*
X177435000Y-105359999D02*
X177387380Y-105407618D01*
X177387380Y-105407618D02*
X177435000Y-105455237D01*
X177435000Y-105455237D02*
X177482619Y-105407618D01*
X177482619Y-105407618D02*
X177387380Y-105407618D01*
X178387380Y-104740952D02*
X178387380Y-104645714D01*
X178387380Y-104645714D02*
X178339761Y-104550476D01*
X178339761Y-104550476D02*
X178292142Y-104502857D01*
X178292142Y-104502857D02*
X178196904Y-104455238D01*
X178196904Y-104455238D02*
X178006428Y-104407619D01*
X178006428Y-104407619D02*
X177768333Y-104407619D01*
X177768333Y-104407619D02*
X177577857Y-104455238D01*
X177577857Y-104455238D02*
X177482619Y-104502857D01*
X177482619Y-104502857D02*
X177435000Y-104550476D01*
X177435000Y-104550476D02*
X177387380Y-104645714D01*
X177387380Y-104645714D02*
X177387380Y-104740952D01*
X177387380Y-104740952D02*
X177435000Y-104836190D01*
X177435000Y-104836190D02*
X177482619Y-104883809D01*
X177482619Y-104883809D02*
X177577857Y-104931428D01*
X177577857Y-104931428D02*
X177768333Y-104979047D01*
X177768333Y-104979047D02*
X178006428Y-104979047D01*
X178006428Y-104979047D02*
X178196904Y-104931428D01*
X178196904Y-104931428D02*
X178292142Y-104883809D01*
X178292142Y-104883809D02*
X178339761Y-104836190D01*
X178339761Y-104836190D02*
X178387380Y-104740952D01*
X199112380Y-114844047D02*
X198302857Y-114844047D01*
X198302857Y-114844047D02*
X198207619Y-114796428D01*
X198207619Y-114796428D02*
X198160000Y-114748809D01*
X198160000Y-114748809D02*
X198112380Y-114653571D01*
X198112380Y-114653571D02*
X198112380Y-114463095D01*
X198112380Y-114463095D02*
X198160000Y-114367857D01*
X198160000Y-114367857D02*
X198207619Y-114320238D01*
X198207619Y-114320238D02*
X198302857Y-114272619D01*
X198302857Y-114272619D02*
X199112380Y-114272619D01*
X198779047Y-113796428D02*
X198112380Y-113796428D01*
X198683809Y-113796428D02*
X198731428Y-113748809D01*
X198731428Y-113748809D02*
X198779047Y-113653571D01*
X198779047Y-113653571D02*
X198779047Y-113510714D01*
X198779047Y-113510714D02*
X198731428Y-113415476D01*
X198731428Y-113415476D02*
X198636190Y-113367857D01*
X198636190Y-113367857D02*
X198112380Y-113367857D01*
X198112380Y-112891666D02*
X198779047Y-112891666D01*
X199112380Y-112891666D02*
X199064761Y-112939285D01*
X199064761Y-112939285D02*
X199017142Y-112891666D01*
X199017142Y-112891666D02*
X199064761Y-112844047D01*
X199064761Y-112844047D02*
X199112380Y-112891666D01*
X199112380Y-112891666D02*
X199017142Y-112891666D01*
X198160000Y-111986905D02*
X198112380Y-112082143D01*
X198112380Y-112082143D02*
X198112380Y-112272619D01*
X198112380Y-112272619D02*
X198160000Y-112367857D01*
X198160000Y-112367857D02*
X198207619Y-112415476D01*
X198207619Y-112415476D02*
X198302857Y-112463095D01*
X198302857Y-112463095D02*
X198588571Y-112463095D01*
X198588571Y-112463095D02*
X198683809Y-112415476D01*
X198683809Y-112415476D02*
X198731428Y-112367857D01*
X198731428Y-112367857D02*
X198779047Y-112272619D01*
X198779047Y-112272619D02*
X198779047Y-112082143D01*
X198779047Y-112082143D02*
X198731428Y-111986905D01*
X198112380Y-111415476D02*
X198160000Y-111510714D01*
X198160000Y-111510714D02*
X198207619Y-111558333D01*
X198207619Y-111558333D02*
X198302857Y-111605952D01*
X198302857Y-111605952D02*
X198588571Y-111605952D01*
X198588571Y-111605952D02*
X198683809Y-111558333D01*
X198683809Y-111558333D02*
X198731428Y-111510714D01*
X198731428Y-111510714D02*
X198779047Y-111415476D01*
X198779047Y-111415476D02*
X198779047Y-111272619D01*
X198779047Y-111272619D02*
X198731428Y-111177381D01*
X198731428Y-111177381D02*
X198683809Y-111129762D01*
X198683809Y-111129762D02*
X198588571Y-111082143D01*
X198588571Y-111082143D02*
X198302857Y-111082143D01*
X198302857Y-111082143D02*
X198207619Y-111129762D01*
X198207619Y-111129762D02*
X198160000Y-111177381D01*
X198160000Y-111177381D02*
X198112380Y-111272619D01*
X198112380Y-111272619D02*
X198112380Y-111415476D01*
X198112380Y-110653571D02*
X198779047Y-110653571D01*
X198588571Y-110653571D02*
X198683809Y-110605952D01*
X198683809Y-110605952D02*
X198731428Y-110558333D01*
X198731428Y-110558333D02*
X198779047Y-110463095D01*
X198779047Y-110463095D02*
X198779047Y-110367857D01*
X198779047Y-110034523D02*
X198112380Y-110034523D01*
X198683809Y-110034523D02*
X198731428Y-109986904D01*
X198731428Y-109986904D02*
X198779047Y-109891666D01*
X198779047Y-109891666D02*
X198779047Y-109748809D01*
X198779047Y-109748809D02*
X198731428Y-109653571D01*
X198731428Y-109653571D02*
X198636190Y-109605952D01*
X198636190Y-109605952D02*
X198112380Y-109605952D01*
X179287380Y-115317857D02*
X180287380Y-115317857D01*
X179906428Y-115317857D02*
X179954047Y-115222619D01*
X179954047Y-115222619D02*
X179954047Y-115032143D01*
X179954047Y-115032143D02*
X179906428Y-114936905D01*
X179906428Y-114936905D02*
X179858809Y-114889286D01*
X179858809Y-114889286D02*
X179763571Y-114841667D01*
X179763571Y-114841667D02*
X179477857Y-114841667D01*
X179477857Y-114841667D02*
X179382619Y-114889286D01*
X179382619Y-114889286D02*
X179335000Y-114936905D01*
X179335000Y-114936905D02*
X179287380Y-115032143D01*
X179287380Y-115032143D02*
X179287380Y-115222619D01*
X179287380Y-115222619D02*
X179335000Y-115317857D01*
X179287380Y-114270238D02*
X179335000Y-114365476D01*
X179335000Y-114365476D02*
X179430238Y-114413095D01*
X179430238Y-114413095D02*
X180287380Y-114413095D01*
X179287380Y-113889285D02*
X179954047Y-113889285D01*
X180287380Y-113889285D02*
X180239761Y-113936904D01*
X180239761Y-113936904D02*
X180192142Y-113889285D01*
X180192142Y-113889285D02*
X180239761Y-113841666D01*
X180239761Y-113841666D02*
X180287380Y-113889285D01*
X180287380Y-113889285D02*
X180192142Y-113889285D01*
X179954047Y-113413095D02*
X179287380Y-113413095D01*
X179858809Y-113413095D02*
X179906428Y-113365476D01*
X179906428Y-113365476D02*
X179954047Y-113270238D01*
X179954047Y-113270238D02*
X179954047Y-113127381D01*
X179954047Y-113127381D02*
X179906428Y-113032143D01*
X179906428Y-113032143D02*
X179811190Y-112984524D01*
X179811190Y-112984524D02*
X179287380Y-112984524D01*
X179287380Y-112508333D02*
X180287380Y-112508333D01*
X179668333Y-112413095D02*
X179287380Y-112127381D01*
X179954047Y-112127381D02*
X179573095Y-112508333D01*
X179954047Y-111794047D02*
X179287380Y-111555952D01*
X179954047Y-111317857D02*
X179287380Y-111555952D01*
X179287380Y-111555952D02*
X179049285Y-111651190D01*
X179049285Y-111651190D02*
X179001666Y-111698809D01*
X179001666Y-111698809D02*
X178954047Y-111794047D01*
X179954047Y-110936904D02*
X178954047Y-110936904D01*
X179906428Y-110936904D02*
X179954047Y-110841666D01*
X179954047Y-110841666D02*
X179954047Y-110651190D01*
X179954047Y-110651190D02*
X179906428Y-110555952D01*
X179906428Y-110555952D02*
X179858809Y-110508333D01*
X179858809Y-110508333D02*
X179763571Y-110460714D01*
X179763571Y-110460714D02*
X179477857Y-110460714D01*
X179477857Y-110460714D02*
X179382619Y-110508333D01*
X179382619Y-110508333D02*
X179335000Y-110555952D01*
X179335000Y-110555952D02*
X179287380Y-110651190D01*
X179287380Y-110651190D02*
X179287380Y-110841666D01*
X179287380Y-110841666D02*
X179335000Y-110936904D01*
X179287380Y-109603571D02*
X179811190Y-109603571D01*
X179811190Y-109603571D02*
X179906428Y-109651190D01*
X179906428Y-109651190D02*
X179954047Y-109746428D01*
X179954047Y-109746428D02*
X179954047Y-109936904D01*
X179954047Y-109936904D02*
X179906428Y-110032142D01*
X179335000Y-109603571D02*
X179287380Y-109698809D01*
X179287380Y-109698809D02*
X179287380Y-109936904D01*
X179287380Y-109936904D02*
X179335000Y-110032142D01*
X179335000Y-110032142D02*
X179430238Y-110079761D01*
X179430238Y-110079761D02*
X179525476Y-110079761D01*
X179525476Y-110079761D02*
X179620714Y-110032142D01*
X179620714Y-110032142D02*
X179668333Y-109936904D01*
X179668333Y-109936904D02*
X179668333Y-109698809D01*
X179668333Y-109698809D02*
X179715952Y-109603571D01*
X179287380Y-109127380D02*
X179954047Y-109127380D01*
X179763571Y-109127380D02*
X179858809Y-109079761D01*
X179858809Y-109079761D02*
X179906428Y-109032142D01*
X179906428Y-109032142D02*
X179954047Y-108936904D01*
X179954047Y-108936904D02*
X179954047Y-108841666D01*
X179954047Y-108651189D02*
X179954047Y-108270237D01*
X180287380Y-108508332D02*
X179430238Y-108508332D01*
X179430238Y-108508332D02*
X179335000Y-108460713D01*
X179335000Y-108460713D02*
X179287380Y-108365475D01*
X179287380Y-108365475D02*
X179287380Y-108270237D01*
X179335000Y-107984522D02*
X179287380Y-107889284D01*
X179287380Y-107889284D02*
X179287380Y-107698808D01*
X179287380Y-107698808D02*
X179335000Y-107603570D01*
X179335000Y-107603570D02*
X179430238Y-107555951D01*
X179430238Y-107555951D02*
X179477857Y-107555951D01*
X179477857Y-107555951D02*
X179573095Y-107603570D01*
X179573095Y-107603570D02*
X179620714Y-107698808D01*
X179620714Y-107698808D02*
X179620714Y-107841665D01*
X179620714Y-107841665D02*
X179668333Y-107936903D01*
X179668333Y-107936903D02*
X179763571Y-107984522D01*
X179763571Y-107984522D02*
X179811190Y-107984522D01*
X179811190Y-107984522D02*
X179906428Y-107936903D01*
X179906428Y-107936903D02*
X179954047Y-107841665D01*
X179954047Y-107841665D02*
X179954047Y-107698808D01*
X179954047Y-107698808D02*
X179906428Y-107603570D01*
X179382619Y-107127379D02*
X179335000Y-107079760D01*
X179335000Y-107079760D02*
X179287380Y-107127379D01*
X179287380Y-107127379D02*
X179335000Y-107174998D01*
X179335000Y-107174998D02*
X179382619Y-107127379D01*
X179382619Y-107127379D02*
X179287380Y-107127379D01*
X179335000Y-106222618D02*
X179287380Y-106317856D01*
X179287380Y-106317856D02*
X179287380Y-106508332D01*
X179287380Y-106508332D02*
X179335000Y-106603570D01*
X179335000Y-106603570D02*
X179382619Y-106651189D01*
X179382619Y-106651189D02*
X179477857Y-106698808D01*
X179477857Y-106698808D02*
X179763571Y-106698808D01*
X179763571Y-106698808D02*
X179858809Y-106651189D01*
X179858809Y-106651189D02*
X179906428Y-106603570D01*
X179906428Y-106603570D02*
X179954047Y-106508332D01*
X179954047Y-106508332D02*
X179954047Y-106317856D01*
X179954047Y-106317856D02*
X179906428Y-106222618D01*
X179287380Y-105651189D02*
X179335000Y-105746427D01*
X179335000Y-105746427D02*
X179382619Y-105794046D01*
X179382619Y-105794046D02*
X179477857Y-105841665D01*
X179477857Y-105841665D02*
X179763571Y-105841665D01*
X179763571Y-105841665D02*
X179858809Y-105794046D01*
X179858809Y-105794046D02*
X179906428Y-105746427D01*
X179906428Y-105746427D02*
X179954047Y-105651189D01*
X179954047Y-105651189D02*
X179954047Y-105508332D01*
X179954047Y-105508332D02*
X179906428Y-105413094D01*
X179906428Y-105413094D02*
X179858809Y-105365475D01*
X179858809Y-105365475D02*
X179763571Y-105317856D01*
X179763571Y-105317856D02*
X179477857Y-105317856D01*
X179477857Y-105317856D02*
X179382619Y-105365475D01*
X179382619Y-105365475D02*
X179335000Y-105413094D01*
X179335000Y-105413094D02*
X179287380Y-105508332D01*
X179287380Y-105508332D02*
X179287380Y-105651189D01*
X179287380Y-104889284D02*
X179954047Y-104889284D01*
X179858809Y-104889284D02*
X179906428Y-104841665D01*
X179906428Y-104841665D02*
X179954047Y-104746427D01*
X179954047Y-104746427D02*
X179954047Y-104603570D01*
X179954047Y-104603570D02*
X179906428Y-104508332D01*
X179906428Y-104508332D02*
X179811190Y-104460713D01*
X179811190Y-104460713D02*
X179287380Y-104460713D01*
X179811190Y-104460713D02*
X179906428Y-104413094D01*
X179906428Y-104413094D02*
X179954047Y-104317856D01*
X179954047Y-104317856D02*
X179954047Y-104174999D01*
X179954047Y-104174999D02*
X179906428Y-104079760D01*
X179906428Y-104079760D02*
X179811190Y-104032141D01*
X179811190Y-104032141D02*
X179287380Y-104032141D01*
D11*
X198628035Y-108371429D02*
X198128035Y-108192857D01*
X198128035Y-108192857D02*
X198628035Y-108014286D01*
X198128035Y-107335714D02*
X198128035Y-107764285D01*
X198128035Y-107550000D02*
X198878035Y-107550000D01*
X198878035Y-107550000D02*
X198770892Y-107621428D01*
X198770892Y-107621428D02*
X198699464Y-107692857D01*
X198699464Y-107692857D02*
X198663750Y-107764285D01*
X198199464Y-107014285D02*
X198163750Y-106978571D01*
X198163750Y-106978571D02*
X198128035Y-107014285D01*
X198128035Y-107014285D02*
X198163750Y-107049999D01*
X198163750Y-107049999D02*
X198199464Y-107014285D01*
X198199464Y-107014285D02*
X198128035Y-107014285D01*
X198128035Y-106264285D02*
X198128035Y-106692856D01*
X198128035Y-106478571D02*
X198878035Y-106478571D01*
X198878035Y-106478571D02*
X198770892Y-106549999D01*
X198770892Y-106549999D02*
X198699464Y-106621428D01*
X198699464Y-106621428D02*
X198663750Y-106692856D01*
D10*
%TO.C,D1*%
X174711166Y-90345048D02*
X174711166Y-91106953D01*
X175092119Y-90726000D02*
X174330214Y-90726000D01*
%TO.C,D2*%
X212422951Y-68856666D02*
X211661047Y-68856666D01*
X212041999Y-69237619D02*
X212041999Y-68475714D01*
%TO.C,D3*%
X205360207Y-76803522D02*
X204979254Y-77463351D01*
X205499645Y-77323913D02*
X204839816Y-76942960D01*
%TO.C,D4*%
X178955273Y-84149774D02*
X178416525Y-84688522D01*
X178955273Y-84688522D02*
X178416525Y-84149774D01*
%TO.C,BT1*%
X181940714Y-97998809D02*
X181797857Y-98046428D01*
X181797857Y-98046428D02*
X181750238Y-98094047D01*
X181750238Y-98094047D02*
X181702619Y-98189285D01*
X181702619Y-98189285D02*
X181702619Y-98332142D01*
X181702619Y-98332142D02*
X181750238Y-98427380D01*
X181750238Y-98427380D02*
X181797857Y-98475000D01*
X181797857Y-98475000D02*
X181893095Y-98522619D01*
X181893095Y-98522619D02*
X182274047Y-98522619D01*
X182274047Y-98522619D02*
X182274047Y-97522619D01*
X182274047Y-97522619D02*
X181940714Y-97522619D01*
X181940714Y-97522619D02*
X181845476Y-97570238D01*
X181845476Y-97570238D02*
X181797857Y-97617857D01*
X181797857Y-97617857D02*
X181750238Y-97713095D01*
X181750238Y-97713095D02*
X181750238Y-97808333D01*
X181750238Y-97808333D02*
X181797857Y-97903571D01*
X181797857Y-97903571D02*
X181845476Y-97951190D01*
X181845476Y-97951190D02*
X181940714Y-97998809D01*
X181940714Y-97998809D02*
X182274047Y-97998809D01*
X181416904Y-97522619D02*
X180845476Y-97522619D01*
X181131190Y-98522619D02*
X181131190Y-97522619D01*
X179988333Y-98522619D02*
X180559761Y-98522619D01*
X180274047Y-98522619D02*
X180274047Y-97522619D01*
X180274047Y-97522619D02*
X180369285Y-97665476D01*
X180369285Y-97665476D02*
X180464523Y-97760714D01*
X180464523Y-97760714D02*
X180559761Y-97808333D01*
D12*
%TO.C,SW1*%
X214801312Y-76303742D02*
G75*
G03*
X214801312Y-76303742I-3500001J0D01*
G01*
X213301312Y-76303742D02*
G75*
G03*
X213301312Y-76303742I-2000001J0D01*
G01*
%TO.C,BT1*%
X183930000Y-101110000D02*
X206630000Y-101110000D01*
X206630000Y-84410000D02*
X185730000Y-84410000D01*
X183930000Y-96610000D02*
X180730000Y-96610000D01*
X180730000Y-88910000D02*
X180730000Y-90460000D01*
X185730000Y-84410000D02*
X183930000Y-86210000D01*
X206630000Y-84410000D02*
X206630000Y-88910000D01*
X182280000Y-87760000D02*
X182280000Y-85760000D01*
X183930000Y-101110000D02*
X183930000Y-96610000D01*
X206630000Y-96610000D02*
X209830000Y-96610000D01*
X180730000Y-96610000D02*
X180730000Y-95060000D01*
X183930000Y-88910000D02*
X180730000Y-88910000D01*
X209830000Y-96610000D02*
X209830000Y-95060000D01*
X209830000Y-88910000D02*
X209830000Y-90460000D01*
X206630000Y-101110000D02*
X206630000Y-96610000D01*
X183930000Y-86210000D02*
X183930000Y-88910000D01*
X183280000Y-86760000D02*
X181280000Y-86760000D01*
X206630000Y-88910000D02*
X209830000Y-88910000D01*
%TD*%
M02*
