%TF.GenerationSoftware,KiCad,Pcbnew,7.0.1*%
%TF.CreationDate,2023-04-19T19:47:13+02:00*%
%TF.ProjectId,unicorn,756e6963-6f72-46e2-9e6b-696361645f70,rev?*%
%TF.SameCoordinates,Original*%
%TF.FileFunction,Copper,L2,Bot*%
%TF.FilePolarity,Positive*%
%FSLAX46Y46*%
G04 Gerber Fmt 4.6, Leading zero omitted, Abs format (unit mm)*
G04 Created by KiCad (PCBNEW 7.0.1) date 2023-04-19 19:47:13*
%MOMM*%
%LPD*%
G01*
G04 APERTURE LIST*
G04 Aperture macros list*
%AMRoundRect*
0 Rectangle with rounded corners*
0 $1 Rounding radius*
0 $2 $3 $4 $5 $6 $7 $8 $9 X,Y pos of 4 corners*
0 Add a 4 corners polygon primitive as box body*
4,1,4,$2,$3,$4,$5,$6,$7,$8,$9,$2,$3,0*
0 Add four circle primitives for the rounded corners*
1,1,$1+$1,$2,$3*
1,1,$1+$1,$4,$5*
1,1,$1+$1,$6,$7*
1,1,$1+$1,$8,$9*
0 Add four rect primitives between the rounded corners*
20,1,$1+$1,$2,$3,$4,$5,0*
20,1,$1+$1,$4,$5,$6,$7,0*
20,1,$1+$1,$6,$7,$8,$9,0*
20,1,$1+$1,$8,$9,$2,$3,0*%
%AMRotRect*
0 Rectangle, with rotation*
0 The origin of the aperture is its center*
0 $1 length*
0 $2 width*
0 $3 Rotation angle, in degrees counterclockwise*
0 Add horizontal line*
21,1,$1,$2,0,0,$3*%
G04 Aperture macros list end*
%TA.AperFunction,WasherPad*%
%ADD10C,5.500000*%
%TD*%
%TA.AperFunction,SMDPad,CuDef*%
%ADD11RoundRect,0.500000X-1.580549X0.043184X1.238529X-0.982877X1.580549X-0.043184X-1.238529X0.982877X0*%
%TD*%
%TA.AperFunction,SMDPad,CuDef*%
%ADD12R,5.000000X1.524000*%
%TD*%
%TA.AperFunction,SMDPad,CuDef*%
%ADD13R,1.524000X5.000000*%
%TD*%
%TA.AperFunction,SMDPad,CuDef*%
%ADD14RotRect,1.524000X5.000000X60.000000*%
%TD*%
%TA.AperFunction,SMDPad,CuDef*%
%ADD15RotRect,1.524000X5.000000X45.000000*%
%TD*%
%TA.AperFunction,SMDPad,CuDef*%
%ADD16R,5.000000X3.600000*%
%TD*%
%TA.AperFunction,Conductor*%
%ADD17C,1.000000*%
%TD*%
G04 APERTURE END LIST*
D10*
%TO.P,REF\u002A\u002A,*%
%TO.N,*%
X196750000Y-60250000D03*
%TD*%
D11*
%TO.P,SW1,2*%
%TO.N,+3V0*%
X221637930Y-80065963D03*
%TO.P,SW1,1*%
%TO.N,VCC*%
X200964693Y-72541520D03*
%TD*%
D12*
%TO.P,D1,1*%
%TO.N,GND*%
X174379500Y-94726000D03*
%TO.P,D1,2*%
%TO.N,VCC*%
X174379500Y-92186000D03*
%TD*%
D13*
%TO.P,D2,1*%
%TO.N,GND*%
X208042000Y-68525000D03*
%TO.P,D2,2*%
%TO.N,VCC*%
X210582000Y-68525000D03*
%TD*%
D14*
%TO.P,D3,1*%
%TO.N,GND*%
X202882500Y-80431704D03*
%TO.P,D3,2*%
%TO.N,VCC*%
X204152500Y-78232000D03*
%TD*%
D15*
%TO.P,D4,1*%
%TO.N,GND*%
X175622949Y-87013051D03*
%TO.P,D4,2*%
%TO.N,VCC*%
X177419000Y-85217000D03*
%TD*%
D16*
%TO.P,BT1,1*%
%TO.N,+3V0*%
X180630000Y-92760000D03*
%TO.P,BT1,2*%
%TO.N,GND*%
X209930000Y-92760000D03*
%TD*%
D17*
%TO.N,+3V0*%
X222577623Y-80407983D02*
X215102017Y-80407983D01*
X182950000Y-97720000D02*
X179900000Y-94670000D01*
X197790000Y-97720000D02*
X182950000Y-97720000D01*
X179900000Y-94670000D02*
X179900000Y-93840000D01*
X215102017Y-80407983D02*
X197790000Y-97720000D01*
%TO.N,GND*%
X174860000Y-81640000D02*
X180750000Y-81640000D01*
X202882500Y-80431704D02*
X200906916Y-78456120D01*
X200540000Y-102650000D02*
X182303500Y-102650000D01*
X169980000Y-89900000D02*
X172866949Y-87013051D01*
X174379500Y-94726000D02*
X171226000Y-94726000D01*
X185270000Y-86160000D02*
X197154204Y-86160000D01*
X200906916Y-78456120D02*
X200906916Y-76794339D01*
X180750000Y-81640000D02*
X185270000Y-86160000D01*
X171226000Y-94726000D02*
X169980000Y-93480000D01*
X169980000Y-93480000D02*
X169980000Y-89900000D01*
X200906916Y-76794339D02*
X208042000Y-69659255D01*
X174412898Y-85803000D02*
X174373000Y-85803000D01*
X174373000Y-85803000D02*
X172950000Y-84380000D01*
X175622949Y-87013051D02*
X174412898Y-85803000D01*
X172866949Y-87013051D02*
X175622949Y-87013051D01*
X208042000Y-69659255D02*
X208042000Y-68525000D01*
X182303500Y-102650000D02*
X174379500Y-94726000D01*
X197154204Y-86160000D02*
X202882500Y-80431704D01*
X172950000Y-83550000D02*
X174860000Y-81640000D01*
X209337000Y-93853000D02*
X200540000Y-102650000D01*
X172950000Y-84380000D02*
X172950000Y-83550000D01*
%TO.N,VCC*%
X207199500Y-65025000D02*
X208820000Y-65025000D01*
X176264000Y-91636000D02*
X179380000Y-88520000D01*
X209850000Y-80780000D02*
X206920000Y-77850000D01*
X210582000Y-71802500D02*
X204152500Y-78232000D01*
X210582000Y-66787000D02*
X210582000Y-68525000D01*
X176264000Y-92186000D02*
X176264000Y-91636000D01*
X204810480Y-87359520D02*
X209850000Y-82320000D01*
X179380000Y-88520000D02*
X179380000Y-86930000D01*
X208820000Y-65025000D02*
X210582000Y-66787000D01*
X179561520Y-87359520D02*
X204810480Y-87359520D01*
X206920000Y-77850000D02*
X204534500Y-77850000D01*
X177419000Y-85217000D02*
X179561520Y-87359520D01*
X210582000Y-68525000D02*
X210582000Y-71802500D01*
X200025000Y-72199500D02*
X207199500Y-65025000D01*
X209850000Y-82320000D02*
X209850000Y-80780000D01*
X204534500Y-77850000D02*
X204152500Y-78232000D01*
%TD*%
M02*
