%TF.GenerationSoftware,KiCad,Pcbnew,5.1.9*%
%TF.CreationDate,2021-01-30T09:02:40+01:00*%
%TF.ProjectId,unicorn,756e6963-6f72-46e2-9e6b-696361645f70,rev?*%
%TF.SameCoordinates,Original*%
%TF.FileFunction,Copper,L2,Bot*%
%TF.FilePolarity,Positive*%
%FSLAX46Y46*%
G04 Gerber Fmt 4.6, Leading zero omitted, Abs format (unit mm)*
G04 Created by KiCad (PCBNEW 5.1.9) date 2021-01-30 09:02:40*
%MOMM*%
%LPD*%
G01*
G04 APERTURE LIST*
%TA.AperFunction,SMDPad,CuDef*%
%ADD10C,0.100000*%
%TD*%
%TA.AperFunction,SMDPad,CuDef*%
%ADD11R,1.524000X5.000000*%
%TD*%
%TA.AperFunction,SMDPad,CuDef*%
%ADD12R,5.000000X1.524000*%
%TD*%
%TA.AperFunction,SMDPad,CuDef*%
%ADD13R,2.600000X3.600000*%
%TD*%
%TA.AperFunction,Conductor*%
%ADD14C,0.250000*%
%TD*%
G04 APERTURE END LIST*
%TO.P,SW1,2*%
%TO.N,+3V0*%
%TA.AperFunction,SMDPad,CuDef*%
G36*
G01*
X219502030Y-80086692D02*
X220015061Y-78677153D01*
G75*
G02*
X220976345Y-78228899I704769J-256515D01*
G01*
X225204962Y-79767990D01*
G75*
G02*
X225653216Y-80729274I-256515J-704769D01*
G01*
X225140185Y-82138813D01*
G75*
G02*
X224178901Y-82587067I-704769J256515D01*
G01*
X219950284Y-81047976D01*
G75*
G02*
X219502030Y-80086692I256515J704769D01*
G01*
G37*
%TD.AperFunction*%
%TO.P,SW1,1*%
%TO.N,VCC*%
%TA.AperFunction,SMDPad,CuDef*%
G36*
G01*
X196949407Y-71878209D02*
X197462438Y-70468670D01*
G75*
G02*
X198423722Y-70020416I704769J-256515D01*
G01*
X202652339Y-71559507D01*
G75*
G02*
X203100593Y-72520791I-256515J-704769D01*
G01*
X202587562Y-73930330D01*
G75*
G02*
X201626278Y-74378584I-704769J256515D01*
G01*
X197397661Y-72839493D01*
G75*
G02*
X196949407Y-71878209I256515J704769D01*
G01*
G37*
%TD.AperFunction*%
%TD*%
%TA.AperFunction,SMDPad,CuDef*%
D10*
%TO.P,D4,2*%
%TO.N,VCC*%
G36*
X178647952Y-87523582D02*
G01*
X175112418Y-83988048D01*
X176190048Y-82910418D01*
X179725582Y-86445952D01*
X178647952Y-87523582D01*
G37*
%TD.AperFunction*%
%TA.AperFunction,SMDPad,CuDef*%
%TO.P,D4,1*%
%TO.N,GND*%
G36*
X176851901Y-89319633D02*
G01*
X173316367Y-85784099D01*
X174393997Y-84706469D01*
X177929531Y-88242003D01*
X176851901Y-89319633D01*
G37*
%TD.AperFunction*%
%TD*%
%TA.AperFunction,SMDPad,CuDef*%
%TO.P,D3,2*%
%TO.N,VCC*%
G36*
X205936564Y-80141911D02*
G01*
X201606436Y-77641911D01*
X202368436Y-76322089D01*
X206698564Y-78822089D01*
X205936564Y-80141911D01*
G37*
%TD.AperFunction*%
%TA.AperFunction,SMDPad,CuDef*%
%TO.P,D3,1*%
%TO.N,GND*%
G36*
X204666564Y-82341615D02*
G01*
X200336436Y-79841615D01*
X201098436Y-78521793D01*
X205428564Y-81021793D01*
X204666564Y-82341615D01*
G37*
%TD.AperFunction*%
%TD*%
D11*
%TO.P,D2,2*%
%TO.N,VCC*%
X210582000Y-68525000D03*
%TO.P,D2,1*%
%TO.N,GND*%
X208042000Y-68525000D03*
%TD*%
D12*
%TO.P,D1,2*%
%TO.N,VCC*%
X174379500Y-92186000D03*
%TO.P,D1,1*%
%TO.N,GND*%
X174379500Y-94726000D03*
%TD*%
D13*
%TO.P,BT1,1*%
%TO.N,+3V0*%
X180358500Y-93853000D03*
%TO.P,BT1,2*%
%TO.N,GND*%
X209658500Y-93853000D03*
%TD*%
D14*
%TO.N,+3V0*%
X211283501Y-95913001D02*
X209343002Y-97853500D01*
X211283501Y-82149999D02*
X211283501Y-95913001D01*
X213025517Y-80407983D02*
X211283501Y-82149999D01*
X222577623Y-80407983D02*
X213025517Y-80407983D01*
X184359000Y-97853500D02*
X180358500Y-93853000D01*
X209343002Y-97853500D02*
X184359000Y-97853500D01*
%TO.N,GND*%
X209658500Y-87207704D02*
X202882500Y-80431704D01*
X209658500Y-93853000D02*
X209658500Y-87207704D01*
X208042000Y-78496111D02*
X208042000Y-68525000D01*
X206071190Y-80466921D02*
X208042000Y-78496111D01*
X202917717Y-80466921D02*
X206071190Y-80466921D01*
X202882500Y-80431704D02*
X202917717Y-80466921D01*
X178798499Y-91727999D02*
X207533499Y-91727999D01*
X175800498Y-94726000D02*
X178798499Y-91727999D01*
X207533499Y-91727999D02*
X209658500Y-93853000D01*
X174379500Y-94726000D02*
X175800498Y-94726000D01*
X176700579Y-87013051D02*
X178798499Y-89110971D01*
X178798499Y-89110971D02*
X178798499Y-91727999D01*
X175622949Y-87013051D02*
X176700579Y-87013051D01*
%TO.N,VCC*%
X204152500Y-76327000D02*
X200025000Y-72199500D01*
X204152500Y-78232000D02*
X204152500Y-76327000D01*
X210582000Y-67217998D02*
X210582000Y-68525000D01*
X209064001Y-65699999D02*
X210582000Y-67217998D01*
X207019999Y-65699999D02*
X209064001Y-65699999D01*
X204152500Y-68567498D02*
X207019999Y-65699999D01*
X204152500Y-78232000D02*
X204152500Y-68567498D01*
X176583459Y-84381459D02*
X177419000Y-85217000D01*
X174259373Y-84381459D02*
X176583459Y-84381459D01*
X172991357Y-85649475D02*
X174259373Y-84381459D01*
X172991357Y-90797857D02*
X172991357Y-85649475D01*
X174379500Y-92186000D02*
X172991357Y-90797857D01*
X188909549Y-85217000D02*
X190878049Y-87185500D01*
X177419000Y-85217000D02*
X188909549Y-85217000D01*
X190878049Y-87185500D02*
X195516500Y-87185500D01*
X195516500Y-87185500D02*
X198501000Y-84201000D01*
X198501000Y-73723500D02*
X200025000Y-72199500D01*
X198501000Y-84201000D02*
X198501000Y-73723500D01*
%TD*%
M02*
