%TF.GenerationSoftware,KiCad,Pcbnew,5.1.9*%
%TF.CreationDate,2021-01-30T09:02:40+01:00*%
%TF.ProjectId,unicorn,756e6963-6f72-46e2-9e6b-696361645f70,rev?*%
%TF.SameCoordinates,Original*%
%TF.FileFunction,Legend,Bot*%
%TF.FilePolarity,Positive*%
%FSLAX46Y46*%
G04 Gerber Fmt 4.6, Leading zero omitted, Abs format (unit mm)*
G04 Created by KiCad (PCBNEW 5.1.9) date 2021-01-30 09:02:40*
%MOMM*%
%LPD*%
G01*
G04 APERTURE LIST*
%ADD10C,0.125000*%
%ADD11C,0.150000*%
%ADD12C,0.120000*%
G04 APERTURE END LIST*
D10*
X198660714Y-106991428D02*
X198160714Y-106812857D01*
X198660714Y-106634285D01*
X198160714Y-105955714D02*
X198160714Y-106384285D01*
X198160714Y-106170000D02*
X198910714Y-106170000D01*
X198803571Y-106241428D01*
X198732142Y-106312857D01*
X198696428Y-106384285D01*
X198232142Y-105634285D02*
X198196428Y-105598571D01*
X198160714Y-105634285D01*
X198196428Y-105670000D01*
X198232142Y-105634285D01*
X198160714Y-105634285D01*
X198910714Y-105134285D02*
X198910714Y-105062857D01*
X198875000Y-104991428D01*
X198839285Y-104955714D01*
X198767857Y-104920000D01*
X198625000Y-104884285D01*
X198446428Y-104884285D01*
X198303571Y-104920000D01*
X198232142Y-104955714D01*
X198196428Y-104991428D01*
X198160714Y-105062857D01*
X198160714Y-105134285D01*
X198196428Y-105205714D01*
X198232142Y-105241428D01*
X198303571Y-105277142D01*
X198446428Y-105312857D01*
X198625000Y-105312857D01*
X198767857Y-105277142D01*
X198839285Y-105241428D01*
X198875000Y-105205714D01*
X198910714Y-105134285D01*
D11*
X199097619Y-115732380D02*
X198288095Y-115732380D01*
X198192857Y-115684761D01*
X198145238Y-115637142D01*
X198097619Y-115541904D01*
X198097619Y-115351428D01*
X198145238Y-115256190D01*
X198192857Y-115208571D01*
X198288095Y-115160952D01*
X199097619Y-115160952D01*
X198764285Y-114684761D02*
X198097619Y-114684761D01*
X198669047Y-114684761D02*
X198716666Y-114637142D01*
X198764285Y-114541904D01*
X198764285Y-114399047D01*
X198716666Y-114303809D01*
X198621428Y-114256190D01*
X198097619Y-114256190D01*
X198097619Y-113780000D02*
X198764285Y-113780000D01*
X199097619Y-113780000D02*
X199050000Y-113827619D01*
X199002380Y-113780000D01*
X199050000Y-113732380D01*
X199097619Y-113780000D01*
X199002380Y-113780000D01*
X198145238Y-112875238D02*
X198097619Y-112970476D01*
X198097619Y-113160952D01*
X198145238Y-113256190D01*
X198192857Y-113303809D01*
X198288095Y-113351428D01*
X198573809Y-113351428D01*
X198669047Y-113303809D01*
X198716666Y-113256190D01*
X198764285Y-113160952D01*
X198764285Y-112970476D01*
X198716666Y-112875238D01*
X198097619Y-112303809D02*
X198145238Y-112399047D01*
X198192857Y-112446666D01*
X198288095Y-112494285D01*
X198573809Y-112494285D01*
X198669047Y-112446666D01*
X198716666Y-112399047D01*
X198764285Y-112303809D01*
X198764285Y-112160952D01*
X198716666Y-112065714D01*
X198669047Y-112018095D01*
X198573809Y-111970476D01*
X198288095Y-111970476D01*
X198192857Y-112018095D01*
X198145238Y-112065714D01*
X198097619Y-112160952D01*
X198097619Y-112303809D01*
X198097619Y-111541904D02*
X198764285Y-111541904D01*
X198573809Y-111541904D02*
X198669047Y-111494285D01*
X198716666Y-111446666D01*
X198764285Y-111351428D01*
X198764285Y-111256190D01*
X198764285Y-110922857D02*
X198097619Y-110922857D01*
X198669047Y-110922857D02*
X198716666Y-110875238D01*
X198764285Y-110780000D01*
X198764285Y-110637142D01*
X198716666Y-110541904D01*
X198621428Y-110494285D01*
X198097619Y-110494285D01*
X198002380Y-110256190D02*
X198002380Y-109494285D01*
X199097619Y-109065714D02*
X199097619Y-108970476D01*
X199050000Y-108875238D01*
X199002380Y-108827619D01*
X198907142Y-108780000D01*
X198716666Y-108732380D01*
X198478571Y-108732380D01*
X198288095Y-108780000D01*
X198192857Y-108827619D01*
X198145238Y-108875238D01*
X198097619Y-108970476D01*
X198097619Y-109065714D01*
X198145238Y-109160952D01*
X198192857Y-109208571D01*
X198288095Y-109256190D01*
X198478571Y-109303809D01*
X198716666Y-109303809D01*
X198907142Y-109256190D01*
X199002380Y-109208571D01*
X199050000Y-109160952D01*
X199097619Y-109065714D01*
X198097619Y-107780000D02*
X198097619Y-108351428D01*
X198097619Y-108065714D02*
X199097619Y-108065714D01*
X198954761Y-108160952D01*
X198859523Y-108256190D01*
X198811904Y-108351428D01*
X179681428Y-114932857D02*
X179633809Y-114790000D01*
X179586190Y-114742380D01*
X179490952Y-114694761D01*
X179348095Y-114694761D01*
X179252857Y-114742380D01*
X179205238Y-114790000D01*
X179157619Y-114885238D01*
X179157619Y-115266190D01*
X180157619Y-115266190D01*
X180157619Y-114932857D01*
X180110000Y-114837619D01*
X180062380Y-114790000D01*
X179967142Y-114742380D01*
X179871904Y-114742380D01*
X179776666Y-114790000D01*
X179729047Y-114837619D01*
X179681428Y-114932857D01*
X179681428Y-115266190D01*
X179157619Y-114266190D02*
X179824285Y-114266190D01*
X180157619Y-114266190D02*
X180110000Y-114313809D01*
X180062380Y-114266190D01*
X180110000Y-114218571D01*
X180157619Y-114266190D01*
X180062380Y-114266190D01*
X179824285Y-113790000D02*
X179157619Y-113790000D01*
X179729047Y-113790000D02*
X179776666Y-113742380D01*
X179824285Y-113647142D01*
X179824285Y-113504285D01*
X179776666Y-113409047D01*
X179681428Y-113361428D01*
X179157619Y-113361428D01*
X179157619Y-112456666D02*
X179681428Y-112456666D01*
X179776666Y-112504285D01*
X179824285Y-112599523D01*
X179824285Y-112790000D01*
X179776666Y-112885238D01*
X179205238Y-112456666D02*
X179157619Y-112551904D01*
X179157619Y-112790000D01*
X179205238Y-112885238D01*
X179300476Y-112932857D01*
X179395714Y-112932857D01*
X179490952Y-112885238D01*
X179538571Y-112790000D01*
X179538571Y-112551904D01*
X179586190Y-112456666D01*
X179157619Y-111980476D02*
X179824285Y-111980476D01*
X179633809Y-111980476D02*
X179729047Y-111932857D01*
X179776666Y-111885238D01*
X179824285Y-111790000D01*
X179824285Y-111694761D01*
X179824285Y-111456666D02*
X179157619Y-111218571D01*
X179824285Y-110980476D02*
X179157619Y-111218571D01*
X178919523Y-111313809D01*
X178871904Y-111361428D01*
X178824285Y-111456666D01*
X179157619Y-109837619D02*
X180157619Y-109837619D01*
X179157619Y-109266190D02*
X179729047Y-109694761D01*
X180157619Y-109266190D02*
X179586190Y-109837619D01*
X179157619Y-108837619D02*
X179824285Y-108837619D01*
X180157619Y-108837619D02*
X180110000Y-108885238D01*
X180062380Y-108837619D01*
X180110000Y-108790000D01*
X180157619Y-108837619D01*
X180062380Y-108837619D01*
X179824285Y-108504285D02*
X179824285Y-108123333D01*
X180157619Y-108361428D02*
X179300476Y-108361428D01*
X179205238Y-108313809D01*
X179157619Y-108218571D01*
X179157619Y-108123333D01*
X179205238Y-107361428D02*
X179157619Y-107456666D01*
X179157619Y-107647142D01*
X179205238Y-107742380D01*
X179252857Y-107790000D01*
X179348095Y-107837619D01*
X179633809Y-107837619D01*
X179729047Y-107790000D01*
X179776666Y-107742380D01*
X179824285Y-107647142D01*
X179824285Y-107456666D01*
X179776666Y-107361428D01*
X179157619Y-106932857D02*
X180157619Y-106932857D01*
X179157619Y-106504285D02*
X179681428Y-106504285D01*
X179776666Y-106551904D01*
X179824285Y-106647142D01*
X179824285Y-106790000D01*
X179776666Y-106885238D01*
X179729047Y-106932857D01*
X179205238Y-105647142D02*
X179157619Y-105742380D01*
X179157619Y-105932857D01*
X179205238Y-106028095D01*
X179300476Y-106075714D01*
X179681428Y-106075714D01*
X179776666Y-106028095D01*
X179824285Y-105932857D01*
X179824285Y-105742380D01*
X179776666Y-105647142D01*
X179681428Y-105599523D01*
X179586190Y-105599523D01*
X179490952Y-106075714D01*
X179824285Y-105170952D02*
X179157619Y-105170952D01*
X179729047Y-105170952D02*
X179776666Y-105123333D01*
X179824285Y-105028095D01*
X179824285Y-104885238D01*
X179776666Y-104790000D01*
X179681428Y-104742380D01*
X179157619Y-104742380D01*
X179205238Y-103123333D02*
X179157619Y-103218571D01*
X179157619Y-103409047D01*
X179205238Y-103504285D01*
X179300476Y-103551904D01*
X179681428Y-103551904D01*
X179776666Y-103504285D01*
X179824285Y-103409047D01*
X179824285Y-103218571D01*
X179776666Y-103123333D01*
X179681428Y-103075714D01*
X179586190Y-103075714D01*
X179490952Y-103551904D01*
X179252857Y-102647142D02*
X179205238Y-102599523D01*
X179157619Y-102647142D01*
X179205238Y-102694761D01*
X179252857Y-102647142D01*
X179157619Y-102647142D01*
X180157619Y-102313809D02*
X179157619Y-101980476D01*
X180157619Y-101647142D01*
X179252857Y-101313809D02*
X179205238Y-101266190D01*
X179157619Y-101313809D01*
X179205238Y-101361428D01*
X179252857Y-101313809D01*
X179157619Y-101313809D01*
X177492857Y-114693333D02*
X177445238Y-114740952D01*
X177397619Y-114883809D01*
X177397619Y-114979047D01*
X177445238Y-115121904D01*
X177540476Y-115217142D01*
X177635714Y-115264761D01*
X177826190Y-115312380D01*
X177969047Y-115312380D01*
X178159523Y-115264761D01*
X178254761Y-115217142D01*
X178350000Y-115121904D01*
X178397619Y-114979047D01*
X178397619Y-114883809D01*
X178350000Y-114740952D01*
X178302380Y-114693333D01*
X177492857Y-113693333D02*
X177445238Y-113740952D01*
X177397619Y-113883809D01*
X177397619Y-113979047D01*
X177445238Y-114121904D01*
X177540476Y-114217142D01*
X177635714Y-114264761D01*
X177826190Y-114312380D01*
X177969047Y-114312380D01*
X178159523Y-114264761D01*
X178254761Y-114217142D01*
X178350000Y-114121904D01*
X178397619Y-113979047D01*
X178397619Y-113883809D01*
X178350000Y-113740952D01*
X178302380Y-113693333D01*
X177778571Y-113264761D02*
X177778571Y-112502857D01*
X177921428Y-111693333D02*
X177873809Y-111550476D01*
X177826190Y-111502857D01*
X177730952Y-111455238D01*
X177588095Y-111455238D01*
X177492857Y-111502857D01*
X177445238Y-111550476D01*
X177397619Y-111645714D01*
X177397619Y-112026666D01*
X178397619Y-112026666D01*
X178397619Y-111693333D01*
X178350000Y-111598095D01*
X178302380Y-111550476D01*
X178207142Y-111502857D01*
X178111904Y-111502857D01*
X178016666Y-111550476D01*
X177969047Y-111598095D01*
X177921428Y-111693333D01*
X177921428Y-112026666D01*
X177873809Y-110836190D02*
X177397619Y-110836190D01*
X178397619Y-111169523D02*
X177873809Y-110836190D01*
X178397619Y-110502857D01*
X177778571Y-110169523D02*
X177778571Y-109407619D01*
X177445238Y-108979047D02*
X177397619Y-108836190D01*
X177397619Y-108598095D01*
X177445238Y-108502857D01*
X177492857Y-108455238D01*
X177588095Y-108407619D01*
X177683333Y-108407619D01*
X177778571Y-108455238D01*
X177826190Y-108502857D01*
X177873809Y-108598095D01*
X177921428Y-108788571D01*
X177969047Y-108883809D01*
X178016666Y-108931428D01*
X178111904Y-108979047D01*
X178207142Y-108979047D01*
X178302380Y-108931428D01*
X178350000Y-108883809D01*
X178397619Y-108788571D01*
X178397619Y-108550476D01*
X178350000Y-108407619D01*
X177683333Y-108026666D02*
X177683333Y-107550476D01*
X177397619Y-108121904D02*
X178397619Y-107788571D01*
X177397619Y-107455238D01*
X178064285Y-105931428D02*
X177397619Y-105931428D01*
X178445238Y-106169523D02*
X177730952Y-106407619D01*
X177730952Y-105788571D01*
X177492857Y-105407619D02*
X177445238Y-105360000D01*
X177397619Y-105407619D01*
X177445238Y-105455238D01*
X177492857Y-105407619D01*
X177397619Y-105407619D01*
X178397619Y-104740952D02*
X178397619Y-104645714D01*
X178350000Y-104550476D01*
X178302380Y-104502857D01*
X178207142Y-104455238D01*
X178016666Y-104407619D01*
X177778571Y-104407619D01*
X177588095Y-104455238D01*
X177492857Y-104502857D01*
X177445238Y-104550476D01*
X177397619Y-104645714D01*
X177397619Y-104740952D01*
X177445238Y-104836190D01*
X177492857Y-104883809D01*
X177588095Y-104931428D01*
X177778571Y-104979047D01*
X178016666Y-104979047D01*
X178207142Y-104931428D01*
X178302380Y-104883809D01*
X178350000Y-104836190D01*
X178397619Y-104740952D01*
D12*
%TO.C,SW1*%
X213301312Y-76303742D02*
G75*
G03*
X213301312Y-76303742I-2000001J0D01*
G01*
X214801312Y-76303742D02*
G75*
G03*
X214801312Y-76303742I-3500001J0D01*
G01*
%TO.C,BT1*%
X183008500Y-87853000D02*
X181008500Y-87853000D01*
X182008500Y-88853000D02*
X182008500Y-86853000D01*
X206358500Y-102203000D02*
X206358500Y-97703000D01*
X183658500Y-102203000D02*
X183658500Y-97703000D01*
X183658500Y-102203000D02*
X206358500Y-102203000D01*
X209558500Y-97703000D02*
X209558500Y-96153000D01*
X206358500Y-97703000D02*
X209558500Y-97703000D01*
X180458500Y-97703000D02*
X180458500Y-96153000D01*
X183658500Y-97703000D02*
X180458500Y-97703000D01*
X180458500Y-90003000D02*
X180458500Y-91553000D01*
X183658500Y-90003000D02*
X180458500Y-90003000D01*
X185458500Y-85503000D02*
X183658500Y-87303000D01*
X183658500Y-87303000D02*
X183658500Y-90003000D01*
X206358500Y-85503000D02*
X185458500Y-85503000D01*
X206358500Y-85503000D02*
X206358500Y-90003000D01*
X209558500Y-90003000D02*
X209558500Y-91553000D01*
X206358500Y-90003000D02*
X209558500Y-90003000D01*
%TO.C,D4*%
D11*
X178948034Y-84142534D02*
X178409286Y-84681282D01*
X178948034Y-84681282D02*
X178409286Y-84142534D01*
%TO.C,D3*%
X205351341Y-76798402D02*
X204970388Y-77458231D01*
X205490779Y-77318793D02*
X204830950Y-76937841D01*
%TO.C,D2*%
X212422952Y-68846428D02*
X211661047Y-68846428D01*
X212042000Y-69227380D02*
X212042000Y-68465476D01*
%TO.C,D1*%
X174700928Y-90345047D02*
X174700928Y-91106952D01*
X175081880Y-90726000D02*
X174319976Y-90726000D01*
%TD*%
M02*
