<svg height='100px' width='100px'  fill="#000000" xmlns="http://www.w3.org/2000/svg" data-name="Layer 1" viewBox="0 0 64 64" x="0px" y="0px"><title>Unicorn</title><path d="M44.26953,20.98633a.87744.87744,0,1,1,1.75488,0,1,1,0,0,0,2,0,2.87744,2.87744,0,1,0-5.75488,0,1,1,0,0,0,2,0Z"></path><circle cx="55.59882" cy="28.56285" r="0.93856" transform="translate(-2.44256 5.36236) rotate(-5.40324)"></circle><path d="M61.6748,26.11035c-3.04041-2.84723-8.09961-7.60681-10.24817-9.62872a11.71759,11.71759,0,0,0,3.89075-3.17548A1.00017,1.00017,0,0,0,54.11523,11.791a3.67069,3.67069,0,0,1-1.30951.21362L60.43848,1.59131A1.00014,1.00014,0,0,0,59.04.19385L47.56281,8.61438c-2.3-1.98743-5.61444-1.53546-7.03839-1.213a2.77611,2.77611,0,0,0-4.46387.8916l-.17224.39368c-8.46362,4.085-6.68658,10.94672-5.24866,16.47644,1.3125,5.04688,1.912,8.04633-1.921,9.19427,0,0-.449-.13184-.67041-.21a21.83746,21.83746,0,0,1-2.67419-1.226,16.09314,16.09314,0,0,0-7.21478-2.23022c-.90131-2.1123-3.10541-5.71118-7.66608-5.71118a7.45007,7.45007,0,0,0-5.96875,3.0708c-2.7793,3.53809-3.543,9.32324-2.043,15.47559,2.082,8.53711-.87793,10.3623-.88281,10.36621a1,1,0,0,0,.44727,1.89453.98984.98984,0,0,0,.35547-.06543c.29651-.11237,6.50616-2.52826,8.86169-7.061a12.66751,12.66751,0,0,0,6.03186,3.94476L17.295,64h8.75867V52.63477a47.23344,47.23344,0,0,0,10.19727.372V64h8.94238l-.00378-14.26178a13.11241,13.11241,0,0,0,3.05261-3.26263.99979.99979,0,0,0-1.67773-1.08789,11.67544,11.67544,0,0,1-5.58691,4.4873l-.627.252v7.96191H38.251V47.60059a1,1,0,0,0-2,0v3.39661A46.49235,46.49235,0,0,1,22.5127,49.94238a.99923.99923,0,0,0-1.23242.97266v7.17383H19.29492V51.85352a.99987.99987,0,0,0-.74609-.9668A10.27842,10.27842,0,0,1,10.54,39.56934c.41113-3.18066,2.5498-6.896,7.22754-6.896A13.87188,13.87188,0,0,1,24.459,34.69922c2.16992,1.11719,4.41895,2.27148,7.47266,1.832a6.05455,6.05455,0,0,0,4.22754-2.24219c1.73926-2.36279,1.15918-5.96289.59863-9.44434-.15332-.95117-.31152-1.93457-.415-2.8584a1.00041,1.00041,0,0,0-1.98828.22363c.11035.97119.27246,1.97852.42871,2.95264.49512,3.07471,1.00684,6.25391-.23437,7.94092a3.93183,3.93183,0,0,1-2.597,1.38367c2.55664-2.34564,1.54742-6.272.62335-9.827-1.28992-4.961-2.601-10.07245,2.9259-13.47858a3.71668,3.71668,0,0,0,1.31042,2.2359l.63379.51221a5.44184,5.44184,0,0,0-3.0752,4.188.99922.99922,0,0,0,.80469,1.16309,1.02426,1.02426,0,0,0,.17969.01611.9999.9999,0,0,0,.98242-.8208,3.69384,3.69384,0,0,1,3.36133-3.18652,1.0001,1.0001,0,0,0,.43555-1.75879L38.06934,11.8623a1.87246,1.87246,0,0,1-.49609-2.03809c.41113-1.51172,1.44238-1.38672,1.70178-.80145,3.293,7.42979,7.40038,8.21307,9.226,8.21307a5.49028,5.49028,0,0,0,.74573-.04944c.55359.51862,2.04034,1.91034,2.04034,1.91034a2.88325,2.88325,0,0,0-.71869,1.88959,1,1,0,1,0,2,0,.87054.87054,0,0,1,.17438-.5202c2.40564,2.2627,5.46576,5.13892,7.56488,7.10419a1.6809,1.6809,0,0,1,.10736.12939.92584.92584,0,0,0-.60992.95154.9386.9386,0,0,0,1.02277.84607.885.885,0,0,0,.10669-.03223,4.03245,4.03245,0,0,1-.538,1.82788c-1.44238,2.48633-4.92871,3.16309-9.32715,1.80664a9.79364,9.79364,0,0,1-5.10156-3.26074.99924.99924,0,0,0-.75586-.45264c-1.52637-.127-3.502-.55078-4.24414-1.84766a3.92933,3.92933,0,0,1,.08008-3.21,1.00016,1.00016,0,0,0-1.79687-.87891,5.90888,5.90888,0,0,0-.02832,5.06592c.89063,1.5708,2.69824,2.51855,5.377,2.82031a11.08656,11.08656,0,0,0,3.033,2.448s1.69556,4.40649.37134,8.40747a.99995.99995,0,1,0,1.89844.62891,14.50485,14.50485,0,0,0,.12042-7.97046,14.70882,14.70882,0,0,0,5.17548.95c4.46387,0,6.36719-2.53711,6.92871-3.50342C63.38184,30.13281,63.19238,27.53076,61.6748,26.11035ZM42.35059,51.46289c.27936-.12634.5304-.28217.79431-.4245l.00031,7.05048h-.79462Zm0,8.626h.79523L43.14642,62h-.79584Zm-4.09961,0h2.09961V62H38.251Zm-14.9707-7.92871c.25653.05255.515.10089.77344.14886v5.77985h-.77344Zm0,7.92871h.77344V62h-.77344Zm-3.98535,0h1.98535V62H19.29492ZM13.08118,31.92834A3.91094,3.91094,0,0,0,10.7207,30.291a3.99368,3.99368,0,0,0-2.93652.64258A1,1,0,0,0,8.9541,32.55566a2.00928,2.00928,0,0,1,1.37012-.3042,2.03469,2.03469,0,0,1,1.1861.90057,10.57891,10.57891,0,0,0-2.95367,6.16144,12.38041,12.38041,0,0,0,1.36365,7.342c-.73254,2.45825-3.08374,4.37439-5.09607,5.60522.53418-1.91309.66895-4.82715-.39941-9.209-1.33594-5.47656-.69434-10.752,1.67285-13.76562A5.51531,5.51531,0,0,1,10.49316,26.98a6.1915,6.1915,0,0,1,5.53406,3.85223A8.555,8.555,0,0,0,13.08118,31.92834Zm41.90125-26.277-2.3537,3.21112a8.28414,8.28414,0,0,1-.22229-1.32117Zm-4.399,3.22748a11.86337,11.86337,0,0,0,.58551,1.97516l-.45972.62726A6.42343,6.42343,0,0,1,48.915,10.10291ZM48.38806,15.236c-1.36212-.03375-4.31134-.79083-6.82257-6.01434,1.43781-.21075,3.907-.24243,5.1972,1.43512a8.007,8.007,0,0,0,5.05957,3.27A6.14441,6.14441,0,0,1,48.38806,15.236Z"></path></svg>